solid InductiveSensorMount_V1
facet normal 1.99195790559927e-006 0.999999999993917 -2.86319381273041e-006
outer loop
vertex -9.875 12.1301749910098 24.2092546871996
vertex -0.209057 12.1301749910098 25.2202546871996
vertex 9.875 12.1301749910098 24.2092546871996
endloop
endfacet
facet normal 1.99195790559927e-006 0.999999999993917 -2.86319381273041e-006
outer loop
vertex -0.209057 12.1301749910098 25.2202546871996
vertex -9.875 12.1301749910098 24.2092546871996
vertex -0.618034 12.1301749910098 25.3071546871996
endloop
endfacet
facet normal 1.99195790559927e-006 0.999999999993917 -2.86319381273041e-006
outer loop
vertex -0.618034 12.1301749910098 25.3071546871996
vertex -9.875 12.1301749910098 24.2092546871996
vertex -1.0 12.1301749910098 25.4771546871996
endloop
endfacet
facet normal 1.99195790559927e-006 0.999999999993917 -2.86319381273041e-006
outer loop
vertex -1.0 12.1301749910098 25.4771546871996
vertex -9.875 12.1301749910098 24.2092546871996
vertex -1.33826 12.1301749910097 25.7229546871996
endloop
endfacet
facet normal 1.99195790559927e-006 0.999999999993917 -2.86319381273041e-006
outer loop
vertex -1.33826 12.1301749910097 25.7229546871996
vertex -9.875 12.1301749910098 24.2092546871996
vertex -1.61803 12.1301749910097 26.0336546871996
endloop
endfacet
facet normal 1.99195790559927e-006 0.999999999993917 -2.86319381273041e-006
outer loop
vertex -1.61803 12.1301749910097 26.0336546871996
vertex -9.875 12.1301749910098 24.2092546871996
vertex -1.82709 12.1301749910098 26.3957546871996
endloop
endfacet
facet normal 1.99195790559927e-006 0.999999999993917 -2.86319381273041e-006
outer loop
vertex 9.875 12.1301749910098 24.2092546871996
vertex 0.618034 12.1301749910098 25.3071546871996
vertex 1.0 12.1301749910098 25.4771546871996
endloop
endfacet
facet normal 1.99195790559927e-006 0.999999999993917 -2.86319381273041e-006
outer loop
vertex 0.618034 12.1301749910098 25.3071546871996
vertex 9.875 12.1301749910098 24.2092546871996
vertex 0.209057 12.1301749910098 25.2202546871996
endloop
endfacet
facet normal 1.99195790559927e-006 0.999999999993917 -2.86319381273041e-006
outer loop
vertex 0.209057 12.1301749910098 25.2202546871996
vertex 9.875 12.1301749910098 24.2092546871996
vertex -0.209057 12.1301749910098 25.2202546871996
endloop
endfacet
facet normal 1.99195790559927e-006 0.999999999993917 -2.86319381273041e-006
outer loop
vertex -22.5 12.1301749910098 -4.29074531280043
vertex 18.3679888461433 12.1301189297899 3.69391892142399
vertex 18.3679888453035 12.1299724957061 -4.29074531338535
endloop
endfacet
facet normal 1.99195790559927e-006 0.999999999993917 -2.86319381273041e-006
outer loop
vertex 18.3679888461433 12.1301189297899 3.69391892142399
vertex -22.5 12.1301749910098 -4.29074531280043
vertex -22.5 12.1301749910098 2.15925468719957
endloop
endfacet
facet normal 1.99195790559927e-006 0.999999999993917 -2.86319381273041e-006
outer loop
vertex 18.3679888461433 12.1301189297899 3.69391892142399
vertex -22.5 12.1301749910098 2.15925468719957
vertex -22.5 12.1301749910098 7.55925468719957
endloop
endfacet
facet normal 1.99195790559927e-006 0.999999999993917 -2.86319381273041e-006
outer loop
vertex 18.3679888461433 12.1301189297899 3.69391892142399
vertex -22.5 12.1301749910098 7.55925468719957
vertex 22.4998417012289 12.1300585298833 3.69404493820629
endloop
endfacet
facet normal 1.99195790559927e-006 0.999999999993917 -2.86319381273041e-006
outer loop
vertex 22.4998417012289 12.1300585298833 3.69404493820629
vertex -22.5 12.1301749910098 7.55925468719957
vertex 22.5 12.1301749910098 24.2092546871996
endloop
endfacet
facet normal 1.99195790559927e-006 0.999999999993917 -2.86319381273041e-006
outer loop
vertex 22.5 12.1301749910098 24.2092546871996
vertex -22.5 12.1301749910098 7.55925468719957
vertex -22.5 12.1301749910098 24.2092546871996
endloop
endfacet
facet normal 1.99195790559927e-006 0.999999999993917 -2.86319381273041e-006
outer loop
vertex 22.5 12.1301749910098 24.2092546871996
vertex -22.5 12.1301749910098 24.2092546871996
vertex -9.875 12.1301749910098 24.2092546871996
endloop
endfacet
facet normal 1.99195790559927e-006 0.999999999993917 -2.86319381273041e-006
outer loop
vertex 22.5 12.1301749910098 24.2092546871996
vertex -9.875 12.1301749910098 24.2092546871996
vertex 9.875 12.1301749910098 24.2092546871996
endloop
endfacet
facet normal 1.0 0.0 0.0
outer loop
vertex 9.875 12.1301749910098 24.2092546871996
vertex 9.875 5.78017499100976 30.2092546871995
vertex 9.875 5.78017499100975 24.2092546871996
endloop
endfacet
facet normal 0.0 1.0 -2.4980018054066e-016
outer loop
vertex -2.0 12.1301749910098 27.2092546871996
vertex -1.95629 12.1301749910098 26.7934546871996
vertex -9.875 12.1301749910098 24.2092546871996
endloop
endfacet
facet normal 0.0 2.4980018054066e-016 1.0
outer loop
vertex -9.875 5.78017499100975 24.2092546871996
vertex -22.5 12.1301749910098 24.2092546871996
vertex -22.5 5.78017499100975 24.2092546871996
endloop
endfacet
facet normal -1.0 0.0 0.0
outer loop
vertex -22.5 12.1301749910098 7.55925468719957
vertex -22.5 5.78017499100976 7.55925468719957
vertex -22.5 5.78017499100975 24.2092546871996
endloop
endfacet
facet normal -1.0 0.0 0.0
outer loop
vertex -22.5 12.1301749910098 -4.29074531280043
vertex -22.5 5.78017499100976 2.15925468719957
vertex -22.5 12.1301749910098 2.15925468719957
endloop
endfacet
facet normal 0.0 1.0 -2.4980018054066e-016
outer loop
vertex -9.875 12.1301749910097 30.2092546871996
vertex -1.95629 12.1301749910097 27.6250546871996
vertex -2.0 12.1301749910098 27.2092546871996
endloop
endfacet
facet normal -0.406612439155888 2.77555756156289e-016 0.913600746674224
outer loop
vertex 1.0 5.78017499100976 25.4771546871996
vertex 0.618034 12.1301749910098 25.3071546871996
vertex 0.618034 5.78017499100975 25.3071546871996
endloop
endfacet
facet normal 0.878885450679471 -0.2966146498984 0.373604221134601
outer loop
vertex 23.8947116195258 20.3931335320666 -4.29216788072055
vertex 22.4998777098661 16.2618171761229 -4.29082108944081
vertex 22.5004222791379 16.2613602997828 -4.2919508132744
endloop
endfacet
facet normal 0.878885450679471 -0.2966146498984 0.373604221134601
outer loop
vertex 22.4998777098661 16.2618171761229 -4.29082108944081
vertex 23.8947116195258 20.3931335320666 -4.29216788072055
vertex 23.889474168606 20.3776129839488 -4.29091952888205
endloop
endfacet
facet normal 0.878885450679471 -0.2966146498984 0.373604221134601
outer loop
vertex 23.889474168606 20.3776129839488 -4.29091952888205
vertex 23.8947116195258 20.3931335320666 -4.29216788072055
vertex 23.8941606297522 20.3936823322047 -4.29080178790903
endloop
endfacet
facet normal 0.0 2.4980018054066e-016 1.0
outer loop
vertex -22.5 12.1301749910098 7.55925468719957
vertex -28.0 12.1301749910098 7.55925468719957
vertex -22.5 5.78017499100976 7.55925468719957
endloop
endfacet
facet normal -0.947492025195555 0.3197793948767 -2.83393361361767e-005
outer loop
vertex 22.499877710706 16.2619636102066 3.69384314536853
vertex 23.889474168606 20.3776129839488 -4.29091952888205
vertex 22.4998777098661 16.2618171761229 -4.29082108944081
endloop
endfacet
facet normal -0.947492025195555 0.3197793948767 -2.83393361361767e-005
outer loop
vertex 23.889474168606 20.3776129839488 -4.29091952888205
vertex 22.499877710706 16.2619636102066 3.69384314536853
vertex 23.8941670510939 20.3937368424904 3.69362607792237
endloop
endfacet
facet normal -0.947492025195555 0.3197793948767 -2.83393361361767e-005
outer loop
vertex 23.889474168606 20.3776129839488 -4.29091952888205
vertex 23.8941670510939 20.3937368424904 3.69362607792237
vertex 23.8941606297522 20.3936823322047 -4.29080178790903
endloop
endfacet
facet normal -1.0 0.0 0.0
outer loop
vertex -9.875 12.1301749910098 24.2092546871996
vertex -9.875 5.78017499100976 30.2092546871995
vertex -9.875 12.1301749910097 30.2092546871996
endloop
endfacet
facet normal 0.0 2.4980018054066e-016 1.0
outer loop
vertex -9.875 12.1301749910098 24.2092546871996
vertex -22.5 12.1301749910098 24.2092546871996
vertex -9.875 5.78017499100975 24.2092546871996
endloop
endfacet
facet normal -1.0 0.0 0.0
outer loop
vertex -22.5 12.1301749910098 24.2092546871996
vertex -22.5 12.1301749910098 7.55925468719957
vertex -22.5 5.78017499100975 24.2092546871996
endloop
endfacet
facet normal 0.0 -1.0 2.4980018054066e-016
outer loop
vertex -9.875 5.78017499100976 30.2092546871995
vertex -9.875 5.78017499100975 24.2092546871996
vertex -1.95629 5.78017499100976 26.7934546871996
endloop
endfacet
facet normal 0.0 -1.0 2.4980018054066e-016
outer loop
vertex -9.875 5.78017499100976 30.2092546871995
vertex -2.0 5.78017499100976 27.2092546871996
vertex -1.95629 5.78017499100975 27.6250546871996
endloop
endfacet
facet normal 0.0 -1.0 2.4980018054066e-016
outer loop
vertex -9.875 5.78017499100976 30.2092546871995
vertex -1.95629 5.78017499100975 27.6250546871996
vertex -1.82709 5.78017499100975 28.0227546871996
endloop
endfacet
facet normal 0.0 -1.0 2.4980018054066e-016
outer loop
vertex -9.875 5.78017499100976 30.2092546871995
vertex -1.95629 5.78017499100976 26.7934546871996
vertex -2.0 5.78017499100976 27.2092546871996
endloop
endfacet
facet normal 0.0 -1.0 2.4980018054066e-016
outer loop
vertex 9.875 5.78017499100976 30.2092546871995
vertex 1.82709 5.78017499100975 28.0227546871996
vertex 1.95629 5.78017499100975 27.6250546871996
endloop
endfacet
facet normal 0.0 -1.0 2.4980018054066e-016
outer loop
vertex 9.875 5.78017499100976 30.2092546871995
vertex 1.61803 5.78017499100975 28.3848546871996
vertex 1.82709 5.78017499100975 28.0227546871996
endloop
endfacet
facet normal -1.0 0.0 0.0
outer loop
vertex -28.0 12.1301749910098 2.15925468719957
vertex -28.0 5.78017499100976 2.15925468719957
vertex -28.0 5.78017499100976 7.55925468719957
endloop
endfacet
facet normal 0.0 -1.0 2.4980018054066e-016
outer loop
vertex -9.875 5.78017499100976 30.2092546871995
vertex -0.209057 5.78017499100976 29.1982546871995
vertex 9.875 5.78017499100976 30.2092546871995
endloop
endfacet
facet normal 0.0 -1.0 2.4980018054066e-016
outer loop
vertex -28.0 5.78017499100976 7.55925468719957
vertex -22.5 5.78017499100976 2.15925468719957
vertex -6.46094 5.78017499100976 -4.29074531280042
endloop
endfacet
facet normal 0.0 -1.0 2.4980018054066e-016
outer loop
vertex -22.5 5.78017499100976 2.15925468719957
vertex -22.5 5.78017499100976 -4.29074531280042
vertex -6.46094 5.78017499100976 -4.29074531280042
endloop
endfacet
facet normal 0.0 -1.0 2.4980018054066e-016
outer loop
vertex -28.0 5.78017499100976 7.55925468719957
vertex -28.0 5.78017499100976 2.15925468719957
vertex -22.5 5.78017499100976 2.15925468719957
endloop
endfacet
facet normal -1.0 0.0 0.0
outer loop
vertex -28.0 12.1301749910098 7.55925468719957
vertex -28.0 12.1301749910098 2.15925468719957
vertex -28.0 5.78017499100976 7.55925468719957
endloop
endfacet
facet normal 0.0 -1.0 2.4980018054066e-016
outer loop
vertex 9.875 5.78017499100976 30.2092546871995
vertex 1.33826 5.78017499100976 28.6955546871996
vertex 1.61803 5.78017499100975 28.3848546871996
endloop
endfacet
facet normal 0.0 -1.0 2.4980018054066e-016
outer loop
vertex -9.875 5.78017499100976 30.2092546871995
vertex -1.82709 5.78017499100975 28.0227546871996
vertex -1.61803 5.78017499100975 28.3848546871996
endloop
endfacet
facet normal 0.0 -1.0 2.4980018054066e-016
outer loop
vertex 9.875 5.78017499100976 30.2092546871995
vertex 1.0 5.78017499100976 28.9413546871996
vertex 1.33826 5.78017499100976 28.6955546871996
endloop
endfacet
facet normal 0.0 -1.0 2.4980018054066e-016
outer loop
vertex -9.875 5.78017499100976 30.2092546871995
vertex -1.61803 5.78017499100975 28.3848546871996
vertex -1.33826 5.78017499100976 28.6955546871996
endloop
endfacet
facet normal 0.0 -1.0 2.4980018054066e-016
outer loop
vertex 9.875 5.78017499100976 30.2092546871995
vertex 0.618034 5.78017499100976 29.1113546871996
vertex 1.0 5.78017499100976 28.9413546871996
endloop
endfacet
facet normal 0.0 -1.0 2.4980018054066e-016
outer loop
vertex -9.875 5.78017499100976 30.2092546871995
vertex -1.33826 5.78017499100976 28.6955546871996
vertex -1.0 5.78017499100976 28.9413546871996
endloop
endfacet
facet normal 0.0 -1.0 2.4980018054066e-016
outer loop
vertex -9.875 5.78017499100976 30.2092546871995
vertex -1.0 5.78017499100976 28.9413546871996
vertex -0.618034 5.78017499100976 29.1113546871996
endloop
endfacet
facet normal 0.0 -1.0 2.4980018054066e-016
outer loop
vertex 9.875 5.78017499100976 30.2092546871995
vertex -0.209057 5.78017499100976 29.1982546871995
vertex 0.209057 5.78017499100976 29.1982546871995
endloop
endfacet
facet normal 0.0 -1.0 2.4980018054066e-016
outer loop
vertex -9.875 5.78017499100976 30.2092546871995
vertex -0.618034 5.78017499100976 29.1113546871996
vertex -0.209057 5.78017499100976 29.1982546871995
endloop
endfacet
facet normal 0.0 -1.0 2.4980018054066e-016
outer loop
vertex 9.875 5.78017499100976 30.2092546871995
vertex 1.95629 5.78017499100975 27.6250546871996
vertex 2.0 5.78017499100976 27.2092546871996
endloop
endfacet
facet normal 0.0 -1.0 2.4980018054066e-016
outer loop
vertex 9.875 5.78017499100976 30.2092546871995
vertex 2.0 5.78017499100976 27.2092546871996
vertex 1.95629 5.78017499100976 26.7934546871996
endloop
endfacet
facet normal 0.0 -1.0 2.4980018054066e-016
outer loop
vertex 9.875 5.78017499100976 30.2092546871995
vertex 1.95629 5.78017499100976 26.7934546871996
vertex 1.82709 5.78017499100976 26.3957546871995
endloop
endfacet
facet normal 0.0 -1.0 2.4980018054066e-016
outer loop
vertex 9.875 5.78017499100976 30.2092546871995
vertex 1.82709 5.78017499100976 26.3957546871995
vertex 1.61803 5.78017499100976 26.0336546871996
endloop
endfacet
facet normal 0.0 -1.0 2.4980018054066e-016
outer loop
vertex 9.875 5.78017499100976 30.2092546871995
vertex 1.33826 5.78017499100975 25.7229546871996
vertex 1.0 5.78017499100976 25.4771546871996
endloop
endfacet
facet normal 0.0 -1.0 2.4980018054066e-016
outer loop
vertex -1.95629 5.78017499100976 26.7934546871996
vertex -9.875 5.78017499100975 24.2092546871996
vertex -1.82709 5.78017499100976 26.3957546871995
endloop
endfacet
facet normal 0.0 -1.0 2.4980018054066e-016
outer loop
vertex 9.875 5.78017499100976 30.2092546871995
vertex 1.61803 5.78017499100976 26.0336546871996
vertex 1.33826 5.78017499100975 25.7229546871996
endloop
endfacet
facet normal 0.0 -1.0 2.4980018054066e-016
outer loop
vertex -1.61803 5.78017499100976 26.0336546871996
vertex -9.875 5.78017499100975 24.2092546871996
vertex -1.33826 5.78017499100975 25.7229546871996
endloop
endfacet
facet normal 0.0 -1.0 2.4980018054066e-016
outer loop
vertex -1.82709 5.78017499100976 26.3957546871995
vertex -9.875 5.78017499100975 24.2092546871996
vertex -1.61803 5.78017499100976 26.0336546871996
endloop
endfacet
facet normal -0.587847431344491 1.38777878078145e-017 -0.808971814998325
outer loop
vertex 1.33826 5.78017499100976 28.6955546871996
vertex 1.0 5.78017499100976 28.9413546871996
vertex 1.0 12.1301749910098 28.9413546871996
endloop
endfacet
facet normal 0.743127623269063 1.38777878078145e-016 -0.669149710852866
outer loop
vertex -1.61803 12.1301749910098 28.3848546871996
vertex -1.33826 5.78017499100976 28.6955546871996
vertex -1.61803 5.78017499100975 28.3848546871996
endloop
endfacet
facet normal -0.406612439155892 -1.38777878078145e-016 -0.913600746674222
outer loop
vertex 1.0 5.78017499100976 28.9413546871996
vertex 0.618034 5.78017499100976 29.1113546871996
vertex 0.618034 12.1301749910098 29.1113546871996
endloop
endfacet
facet normal 0.587847431344491 9.71445146547012e-017 -0.808971814998325
outer loop
vertex -1.0 5.78017499100976 28.9413546871996
vertex -1.33826 5.78017499100976 28.6955546871996
vertex -1.33826 12.1301749910098 28.6955546871996
endloop
endfacet
facet normal 0.406612439155892 -1.38777878078145e-016 -0.913600746674222
outer loop
vertex -0.618034 5.78017499100976 29.1113546871996
vertex -1.0 5.78017499100976 28.9413546871996
vertex -1.0 12.1301749910098 28.9413546871996
endloop
endfacet
facet normal 0.0 -2.4980018054066e-016 -1.0
outer loop
vertex 0.209057 5.78017499100976 29.1982546871995
vertex -0.209057 5.78017499100976 29.1982546871995
vertex -0.209057 12.1301749910097 29.1982546871996
endloop
endfacet
facet normal 0.207841335382732 -2.08166817117217e-016 -0.978162552598658
outer loop
vertex -0.209057 5.78017499100976 29.1982546871995
vertex -0.618034 5.78017499100976 29.1113546871996
vertex -0.618034 12.1301749910098 29.1113546871996
endloop
endfacet
facet normal -0.994519990844826 1.56125112837913e-017 -0.104546582010166
outer loop
vertex 1.95629 12.1301749910097 27.6250546871996
vertex 2.0 5.78017499100976 27.2092546871996
vertex 1.95629 5.78017499100975 27.6250546871996
endloop
endfacet
facet normal -0.994519990844826 -1.56125112837913e-017 0.104546582010166
outer loop
vertex 1.95629 12.1301749910098 26.7934546871996
vertex 1.95629 5.78017499100976 26.7934546871996
vertex 2.0 5.78017499100976 27.2092546871996
endloop
endfacet
facet normal -0.951070967541124 1.38777878078145e-017 0.308972514474008
outer loop
vertex 1.82709 12.1301749910098 26.3957546871996
vertex 1.82709 5.78017499100976 26.3957546871995
vertex 1.95629 5.78017499100976 26.7934546871996
endloop
endfacet
facet normal -0.866023883975278 1.59594559789866e-016 0.500002632377444
outer loop
vertex 1.61803 12.1301749910097 26.0336546871996
vertex 1.61803 5.78017499100976 26.0336546871996
vertex 1.82709 5.78017499100976 26.3957546871995
endloop
endfacet
facet normal 0.0 -1.0 2.4980018054066e-016
outer loop
vertex 9.875 5.78017499100976 30.2092546871995
vertex 1.0 5.78017499100976 25.4771546871996
vertex 9.875 5.78017499100975 24.2092546871996
endloop
endfacet
facet normal -0.587847431344494 -4.16333634234434e-017 0.808971814998323
outer loop
vertex 1.33826 5.78017499100975 25.7229546871996
vertex 1.0 12.1301749910098 25.4771546871996
vertex 1.0 5.78017499100976 25.4771546871996
endloop
endfacet
facet normal 0.951070967541124 1.38777878078145e-017 0.308972514474008
outer loop
vertex -1.95629 12.1301749910098 26.7934546871996
vertex -1.95629 5.78017499100976 26.7934546871996
vertex -1.82709 5.78017499100976 26.3957546871995
endloop
endfacet
facet normal -0.743127623269063 -1.38777878078145e-016 0.669149710852866
outer loop
vertex 1.33826 12.1301749910097 25.7229546871996
vertex 1.33826 5.78017499100975 25.7229546871996
vertex 1.61803 5.78017499100976 26.0336546871996
endloop
endfacet
facet normal -0.207841335382732 2.08166817117217e-016 0.978162552598658
outer loop
vertex 0.618034 5.78017499100975 25.3071546871996
vertex 0.209057 12.1301749910098 25.2202546871996
vertex 0.209057 5.78017499100975 25.2202546871995
endloop
endfacet
facet normal -1.29100920378114e-007 -0.999999999999979 1.60154805559671e-007
outer loop
vertex 22.5003441674011 5.78014833895956 9.69404492760462
vertex -6.46094 5.78017499100976 -4.29074531280042
vertex 22.4992299992105 5.78017499100976 -4.29074531296461
endloop
endfacet
facet normal -1.29100920378114e-007 -0.999999999999979 1.60154805559671e-007
outer loop
vertex -6.46094 5.78017499100976 -4.29074531280042
vertex 22.5003441674011 5.78014833895956 9.69404492760462
vertex -22.5 5.78017499100976 7.55925468719957
endloop
endfacet
facet normal -1.29100920378114e-007 -0.999999999999979 1.60154805559671e-007
outer loop
vertex -22.5 5.78017499100976 7.55925468719957
vertex 22.5003441674011 5.78014833895956 9.69404492760462
vertex -22.5 5.78017499100975 24.2092546871996
endloop
endfacet
facet normal -1.29100920378114e-007 -0.999999999999979 1.60154805559671e-007
outer loop
vertex -22.5 5.78017499100975 24.2092546871996
vertex 22.5003441674011 5.78014833895956 9.69404492760462
vertex 22.5000140408813 5.78017544477568 10.690427074498
endloop
endfacet
facet normal -1.29100920378114e-007 -0.999999999999979 1.60154805559671e-007
outer loop
vertex -22.5 5.78017499100975 24.2092546871996
vertex 22.5000140408813 5.78017544477568 10.690427074498
vertex 22.5 5.78017499100975 24.2092546871996
endloop
endfacet
facet normal -1.29100920378114e-007 -0.999999999999979 1.60154805559671e-007
outer loop
vertex -22.5 5.78017499100975 24.2092546871996
vertex 22.5 5.78017499100975 24.2092546871996
vertex 9.875 5.78017499100975 24.2092546871996
endloop
endfacet
facet normal -1.29100920378114e-007 -0.999999999999979 1.60154805559671e-007
outer loop
vertex -22.5 5.78017499100975 24.2092546871996
vertex 9.875 5.78017499100975 24.2092546871996
vertex -9.875 5.78017499100975 24.2092546871996
endloop
endfacet
facet normal -1.29100920378114e-007 -0.999999999999979 1.60154805559671e-007
outer loop
vertex 9.875 5.78017499100975 24.2092546871996
vertex 0.209057 5.78017499100975 25.2202546871995
vertex -9.875 5.78017499100975 24.2092546871996
endloop
endfacet
facet normal -1.29100920378114e-007 -0.999999999999979 1.60154805559671e-007
outer loop
vertex 0.209057 5.78017499100975 25.2202546871995
vertex 9.875 5.78017499100975 24.2092546871996
vertex 0.618034 5.78017499100975 25.3071546871996
endloop
endfacet
facet normal -1.29100920378114e-007 -0.999999999999979 1.60154805559671e-007
outer loop
vertex 0.618034 5.78017499100975 25.3071546871996
vertex 9.875 5.78017499100975 24.2092546871996
vertex 1.0 5.78017499100976 25.4771546871996
endloop
endfacet
facet normal -1.29100920378114e-007 -0.999999999999979 1.60154805559671e-007
outer loop
vertex -9.875 5.78017499100975 24.2092546871996
vertex -1.0 5.78017499100976 25.4771546871996
vertex -1.33826 5.78017499100975 25.7229546871996
endloop
endfacet
facet normal -1.29100920378114e-007 -0.999999999999979 1.60154805559671e-007
outer loop
vertex -1.0 5.78017499100976 25.4771546871996
vertex -9.875 5.78017499100975 24.2092546871996
vertex -0.618034 5.78017499100975 25.3071546871996
endloop
endfacet
facet normal -1.29100920378114e-007 -0.999999999999979 1.60154805559671e-007
outer loop
vertex -0.618034 5.78017499100975 25.3071546871996
vertex -9.875 5.78017499100975 24.2092546871996
vertex -0.209057 5.78017499100975 25.2202546871995
endloop
endfacet
facet normal -1.29100920378114e-007 -0.999999999999979 1.60154805559671e-007
outer loop
vertex -0.209057 5.78017499100975 25.2202546871995
vertex -9.875 5.78017499100975 24.2092546871996
vertex 0.209057 5.78017499100975 25.2202546871995
endloop
endfacet
facet normal -1.29100920378114e-007 -0.999999999999979 1.60154805559671e-007
outer loop
vertex -28.0 5.78017499100976 7.55925468719957
vertex -6.46094 5.78017499100976 -4.29074531280042
vertex -22.5 5.78017499100976 7.55925468719957
endloop
endfacet
facet normal 0.0 2.4980018054066e-016 1.0
outer loop
vertex 0.209057 5.78017499100975 25.2202546871995
vertex -0.209057 12.1301749910098 25.2202546871996
vertex -0.209057 5.78017499100975 25.2202546871995
endloop
endfacet
facet normal 0.406612439155888 2.77555756156289e-016 0.913600746674224
outer loop
vertex -0.618034 5.78017499100975 25.3071546871996
vertex -1.0 12.1301749910098 25.4771546871996
vertex -1.0 5.78017499100976 25.4771546871996
endloop
endfacet
facet normal 0.587847431344494 -4.16333634234434e-017 0.808971814998323
outer loop
vertex -1.0 5.78017499100976 25.4771546871996
vertex -1.33826 12.1301749910097 25.7229546871996
vertex -1.33826 5.78017499100975 25.7229546871996
endloop
endfacet
facet normal 0.743127623269063 -1.38777878078145e-016 0.669149710852866
outer loop
vertex -1.61803 12.1301749910097 26.0336546871996
vertex -1.61803 5.78017499100976 26.0336546871996
vertex -1.33826 5.78017499100975 25.7229546871996
endloop
endfacet
facet normal 0.866023883975278 1.59594559789866e-016 0.500002632377444
outer loop
vertex -1.82709 12.1301749910098 26.3957546871996
vertex -1.82709 5.78017499100976 26.3957546871995
vertex -1.61803 5.78017499100976 26.0336546871996
endloop
endfacet
facet normal 0.0 -2.4980018054066e-016 -1.0
outer loop
vertex -22.5 5.78017499100976 2.15925468719957
vertex -28.0 5.78017499100976 2.15925468719957
vertex -28.0 12.1301749910098 2.15925468719957
endloop
endfacet
facet normal 0.0 -2.4980018054066e-016 -1.0
outer loop
vertex -22.5 5.78017499100976 2.15925468719957
vertex -28.0 12.1301749910098 2.15925468719957
vertex -22.5 12.1301749910098 2.15925468719957
endloop
endfacet
facet normal 0.0 1.0 -2.4980018054066e-016
outer loop
vertex -28.0 12.1301749910098 7.55925468719957
vertex -22.5 12.1301749910098 2.15925468719957
vertex -28.0 12.1301749910098 2.15925468719957
endloop
endfacet
facet normal 0.0 1.0 -2.4980018054066e-016
outer loop
vertex -22.5 12.1301749910098 7.55925468719957
vertex -22.5 12.1301749910098 2.15925468719957
vertex -28.0 12.1301749910098 7.55925468719957
endloop
endfacet
facet normal 0.0 1.0 -2.4980018054066e-016
outer loop
vertex -9.875 12.1301749910097 30.2092546871996
vertex -2.0 12.1301749910098 27.2092546871996
vertex -9.875 12.1301749910098 24.2092546871996
endloop
endfacet
facet normal 0.0 1.0 -2.4980018054066e-016
outer loop
vertex 9.875 12.1301749910097 30.2092546871996
vertex 1.82709 12.1301749910098 28.0227546871996
vertex 1.61803 12.1301749910098 28.3848546871996
endloop
endfacet
facet normal 0.0 1.0 -2.4980018054066e-016
outer loop
vertex -1.95629 12.1301749910098 26.7934546871996
vertex -1.82709 12.1301749910098 26.3957546871996
vertex -9.875 12.1301749910098 24.2092546871996
endloop
endfacet
facet normal -7.79533538739292e-007 -1.04448801080403e-006 -0.999999999999151
outer loop
vertex 27.4714076593663 24.8495167281775 -4.29080178790904
vertex 27.5732778732401 16.9360987407589 -4.29080178790904
vertex 27.5360156385375 15.2396674263701 -4.29080178790903
endloop
endfacet
facet normal -7.79533538739292e-007 -1.04448801080403e-006 -0.999999999999151
outer loop
vertex 27.5732778732401 16.9360987407589 -4.29080178790904
vertex 27.4714076593663 24.8495167281775 -4.29080178790904
vertex 29.9980833774471 26.2352221435956 -4.29080178790903
endloop
endfacet
facet normal -7.79533538739292e-007 -1.04448801080403e-006 -0.999999999999151
outer loop
vertex 27.5732778732401 16.9360987407589 -4.29080178790904
vertex 29.9980833774471 26.2352221435956 -4.29080178790903
vertex 28.0483391609567 18.5650813838483 -4.29080178790904
endloop
endfacet
facet normal -7.79533538739292e-007 -1.04448801080403e-006 -0.999999999999151
outer loop
vertex 28.0483391609567 18.5650813838483 -4.29080178790904
vertex 29.9980833774471 26.2352221435956 -4.29080178790903
vertex 28.9288248600052 20.0156028805331 -4.29080178790904
endloop
endfacet
facet normal -7.79533538739292e-007 -1.04448801080403e-006 -0.999999999999151
outer loop
vertex 28.9288248600052 20.0156028805331 -4.29080178790904
vertex 29.9980833774471 26.2352221435956 -4.29080178790903
vertex 30.1547313250671 21.1888125879142 -4.29080178790904
endloop
endfacet
facet normal -7.79533538739292e-007 -1.04448801080403e-006 -0.999999999999151
outer loop
vertex 30.1547313250671 21.1888125879142 -4.29080178790904
vertex 29.9980833774471 26.2352221435956 -4.29080178790903
vertex 32.7973116606109 26.9197589953393 -4.29080178790904
endloop
endfacet
facet normal -7.79533538739292e-007 -1.04448801080403e-006 -0.999999999999151
outer loop
vertex 30.1547313250671 21.1888125879142 -4.29080178790904
vertex 32.7973116606109 26.9197589953393 -4.29080178790904
vertex 31.6425150564544 22.0047582032544 -4.29080178790903
endloop
endfacet
facet normal -7.79533538739292e-007 -1.04448801080403e-006 -0.999999999999151
outer loop
vertex 31.6425150564544 22.0047582032544 -4.29080178790903
vertex 32.7973116606109 26.9197589953393 -4.29080178790904
vertex 33.2907860515522 22.4078343812821 -4.29080178790905
endloop
endfacet
facet normal -7.79533538739292e-007 -1.04448801080403e-006 -0.999999999999151
outer loop
vertex 33.2907860515522 22.4078343812821 -4.29080178790905
vertex 32.7973116606109 26.9197589953393 -4.29080178790904
vertex 35.6783297273033 26.8564772282126 -4.29080178790904
endloop
endfacet
facet normal -7.79533538739292e-007 -1.04448801080403e-006 -0.999999999999151
outer loop
vertex 33.2907860515522 22.4078343812821 -4.29080178790905
vertex 35.6783297273033 26.8564772282126 -4.29080178790904
vertex 34.9872173659409 22.3705721465795 -4.29080178790902
endloop
endfacet
facet normal -7.79533538739292e-007 -1.04448801080403e-006 -0.999999999999151
outer loop
vertex 34.9872173659409 22.3705721465795 -4.29080178790902
vertex 35.6783297273033 26.8564772282126 -4.29080178790904
vertex 36.6162000090304 21.8955108588629 -4.29080178790905
endloop
endfacet
facet normal -7.79533538739292e-007 -1.04448801080403e-006 -0.999999999999151
outer loop
vertex 36.6162000090304 21.8955108588629 -4.29080178790905
vertex 35.6783297273033 26.8564772282126 -4.29080178790904
vertex 38.4448009573868 26.0496893900674 -4.29080178790903
endloop
endfacet
facet normal -7.79533538739292e-007 -1.04448801080403e-006 -0.999999999999151
outer loop
vertex 36.6162000090304 21.8955108588629 -4.29080178790905
vertex 38.4448009573868 26.0496893900674 -4.29080178790903
vertex 38.0667215057152 21.0150251598143 -4.29080178790905
endloop
endfacet
facet normal -7.79533538739292e-007 -1.04448801080403e-006 -0.999999999999151
outer loop
vertex 38.0667215057152 21.0150251598143 -4.29080178790905
vertex 38.4448009573868 26.0496893900674 -4.29080178790903
vertex 39.2399312130963 19.7891186947525 -4.29080178790904
endloop
endfacet
facet normal -7.79533538739292e-007 -1.04448801080403e-006 -0.999999999999151
outer loop
vertex 39.2399312130963 19.7891186947525 -4.29080178790904
vertex 38.4448009573868 26.0496893900674 -4.29080178790903
vertex 40.908194908341 24.5543767387932 -4.29080178790904
endloop
endfacet
facet normal -7.79533538739292e-007 -1.04448801080403e-006 -0.999999999999151
outer loop
vertex 39.2399312130963 19.7891186947525 -4.29080178790904
vertex 40.908194908341 24.5543767387932 -4.29080178790904
vertex 40.0558768284364 18.3013349633651 -4.29080178790905
endloop
endfacet
facet normal -7.79533538739292e-007 -1.04448801080403e-006 -0.999999999999151
outer loop
vertex 40.0558768284364 18.3013349633651 -4.29080178790905
vertex 40.908194908341 24.5543767387932 -4.29080178790904
vertex 40.4589530064641 16.6530639682674 -4.29080178790903
endloop
endfacet
facet normal -7.79533538739292e-007 -1.04448801080403e-006 -0.999999999999151
outer loop
vertex 40.4589530064641 16.6530639682674 -4.29080178790903
vertex 40.908194908341 24.5543767387932 -4.29080178790904
vertex 40.5235609856353 7.04321466646008 -4.29080178790904
endloop
endfacet
facet normal -7.79533538739292e-007 -1.04448801080403e-006 -0.999999999999151
outer loop
vertex 40.5235609856353 7.04321466646008 -4.29080178790904
vertex 40.908194908341 24.5543767387932 -4.29080178790904
vertex 42.6054953639752 9.03565511147855 -4.29080178790903
endloop
endfacet
facet normal -7.79533538739292e-007 -1.04448801080403e-006 -0.999999999999151
outer loop
vertex 42.6054953639752 9.03565511147855 -4.29080178790903
vertex 40.908194908341 24.5543767387932 -4.29080178790904
vertex 42.9006353533595 22.4724423604533 -4.29080178790903
endloop
endfacet
facet normal -7.79533538739292e-007 -1.04448801080403e-006 -0.999999999999151
outer loop
vertex 42.6054953639752 9.03565511147855 -4.29080178790903
vertex 42.9006353533595 22.4724423604533 -4.29080178790903
vertex 44.1008080152494 11.4990490624328 -4.29080178790903
endloop
endfacet
facet normal -7.79533538739292e-007 -1.04448801080403e-006 -0.999999999999151
outer loop
vertex 44.1008080152494 11.4990490624328 -4.29080178790903
vertex 42.9006353533595 22.4724423604533 -4.29080178790903
vertex 44.2863407687777 19.9457666423724 -4.29080178790903
endloop
endfacet
facet normal -7.79533538739292e-007 -1.04448801080403e-006 -0.999999999999151
outer loop
vertex 44.1008080152494 11.4990490624328 -4.29080178790903
vertex 44.2863407687777 19.9457666423724 -4.29080178790903
vertex 44.9075958533947 14.2655202925163 -4.29080178790903
endloop
endfacet
facet normal -7.79533538739292e-007 -1.04448801080403e-006 -0.999999999999151
outer loop
vertex 44.9075958533947 14.2655202925163 -4.29080178790903
vertex 44.2863407687777 19.9457666423724 -4.29080178790903
vertex 44.9708776205213 17.1465383592087 -4.29080178790903
endloop
endfacet
facet normal -7.79533538739292e-007 -1.04448801080403e-006 -0.999999999999151
outer loop
vertex 18.3679888453035 12.1299724957061 -4.29074531338535
vertex -22.5 5.78017499100976 -4.29074531280042
vertex -22.5 12.1301749910098 -4.29074531280043
endloop
endfacet
facet normal -7.79533538739292e-007 -1.04448801080403e-006 -0.999999999999151
outer loop
vertex -22.5 5.78017499100976 -4.29074531280042
vertex 18.3679888453035 12.1299724957061 -4.29074531338535
vertex -6.46094 5.78017499100976 -4.29074531280042
endloop
endfacet
facet normal -7.79533538739292e-007 -1.04448801080403e-006 -0.999999999999151
outer loop
vertex -6.46094 5.78017499100976 -4.29074531280042
vertex 18.3679888453035 12.1299724957061 -4.29074531338535
vertex 22.4992299992105 5.78017499100976 -4.29074531296461
endloop
endfacet
facet normal -7.79533538739292e-007 -1.04448801080403e-006 -0.999999999999151
outer loop
vertex 22.4992299992105 5.78017499100976 -4.29074531296461
vertex 18.3679888453035 12.1299724957061 -4.29074531338535
vertex 22.4998777098661 16.2618171761229 -4.29082108944081
endloop
endfacet
facet normal -7.79533538739292e-007 -1.04448801080403e-006 -0.999999999999151
outer loop
vertex 22.4992299992105 5.78017499100976 -4.29074531296461
vertex 22.4998777098661 16.2618171761229 -4.29082108944081
vertex 29.5501676876149 5.84304200457015 -4.29080178790904
endloop
endfacet
facet normal -7.79533538739292e-007 -1.04448801080403e-006 -0.999999999999151
outer loop
vertex 29.5501676876149 5.84304200457015 -4.29080178790904
vertex 22.4998777098661 16.2618171761229 -4.29082108944081
vertex 23.889474168606 20.3776129839488 -4.29091952888205
endloop
endfacet
facet normal -7.79533538739292e-007 -1.04448801080403e-006 -0.999999999999151
outer loop
vertex 29.5501676876149 5.84304200457015 -4.29080178790904
vertex 23.889474168606 20.3776129839488 -4.29091952888205
vertex 23.8941606297522 20.3936823322047 -4.29080178790903
endloop
endfacet
facet normal -7.79533538739292e-007 -1.04448801080403e-006 -0.999999999999151
outer loop
vertex 29.5501676876149 5.84304200457015 -4.29080178790904
vertex 23.8941606297522 20.3936823322047 -4.29080178790903
vertex 25.3894732810264 22.857076283159 -4.29080178790904
endloop
endfacet
facet normal -7.79533538739292e-007 -1.04448801080403e-006 -0.999999999999151
outer loop
vertex 29.5501676876149 5.84304200457015 -4.29080178790904
vertex 25.3894732810264 22.857076283159 -4.29080178790904
vertex 27.5360156385375 15.2396674263701 -4.29080178790903
endloop
endfacet
facet normal -7.79533538739292e-007 -1.04448801080403e-006 -0.999999999999151
outer loop
vertex 27.5360156385375 15.2396674263701 -4.29080178790903
vertex 25.3894732810264 22.857076283159 -4.29080178790904
vertex 27.4714076593663 24.8495167281775 -4.29080178790904
endloop
endfacet
facet normal -7.79533538739292e-007 -1.04448801080403e-006 -0.999999999999151
outer loop
vertex 29.5501676876149 5.84304200457015 -4.29080178790904
vertex 27.5360156385375 15.2396674263701 -4.29080178790903
vertex 27.9390918165652 13.5913964312724 -4.29080178790903
endloop
endfacet
facet normal -7.79533538739292e-007 -1.04448801080403e-006 -0.999999999999151
outer loop
vertex 29.5501676876149 5.84304200457015 -4.29080178790904
vertex 27.9390918165652 13.5913964312724 -4.29080178790903
vertex 28.7550374319053 12.103612699885 -4.29080178790904
endloop
endfacet
facet normal -7.79533538739292e-007 -1.04448801080403e-006 -0.999999999999151
outer loop
vertex 29.5501676876149 5.84304200457015 -4.29080178790904
vertex 28.7550374319053 12.103612699885 -4.29080178790904
vertex 29.9282471392865 10.8777062348232 -4.29080178790904
endloop
endfacet
facet normal -7.79533538739292e-007 -1.04448801080403e-006 -0.999999999999151
outer loop
vertex 29.5501676876149 5.84304200457015 -4.29080178790904
vertex 29.9282471392865 10.8777062348232 -4.29080178790904
vertex 32.3166389176983 5.03625416642489 -4.29080178790903
endloop
endfacet
facet normal -7.79533538739292e-007 -1.04448801080403e-006 -0.999999999999151
outer loop
vertex 32.3166389176983 5.03625416642489 -4.29080178790903
vertex 29.9282471392865 10.8777062348232 -4.29080178790904
vertex 31.3787686359713 9.99722053577463 -4.29080178790903
endloop
endfacet
facet normal -7.79533538739292e-007 -1.04448801080403e-006 -0.999999999999151
outer loop
vertex 32.3166389176983 5.03625416642489 -4.29080178790903
vertex 31.3787686359713 9.99722053577463 -4.29080178790903
vertex 33.0077512790607 9.52215924805807 -4.29080178790904
endloop
endfacet
facet normal -7.79533538739292e-007 -1.04448801080403e-006 -0.999999999999151
outer loop
vertex 32.3166389176983 5.03625416642489 -4.29080178790903
vertex 33.0077512790607 9.52215924805807 -4.29080178790904
vertex 35.1976569843908 4.97297239929828 -4.29080178790904
endloop
endfacet
facet normal -7.79533538739292e-007 -1.04448801080403e-006 -0.999999999999151
outer loop
vertex 35.1976569843908 4.97297239929828 -4.29080178790904
vertex 33.0077512790607 9.52215924805807 -4.29080178790904
vertex 34.7041825934495 9.48489701335549 -4.29080178790904
endloop
endfacet
facet normal -7.79533538739292e-007 -1.04448801080403e-006 -0.999999999999151
outer loop
vertex 35.1976569843908 4.97297239929828 -4.29080178790904
vertex 34.7041825934495 9.48489701335549 -4.29080178790904
vertex 36.3524535885472 9.88797319138313 -4.29080178790903
endloop
endfacet
facet normal -7.79533538739292e-007 -1.04448801080403e-006 -0.999999999999151
outer loop
vertex 35.1976569843908 4.97297239929828 -4.29080178790904
vertex 36.3524535885472 9.88797319138313 -4.29080178790903
vertex 37.9968852675545 5.65750925104192 -4.29080178790903
endloop
endfacet
facet normal -7.79533538739292e-007 -1.04448801080403e-006 -0.999999999999151
outer loop
vertex 37.9968852675545 5.65750925104192 -4.29080178790903
vertex 36.3524535885472 9.88797319138313 -4.29080178790903
vertex 37.8402373199345 10.7039188067233 -4.29080178790904
endloop
endfacet
facet normal -7.79533538739292e-007 -1.04448801080403e-006 -0.999999999999151
outer loop
vertex 37.9968852675545 5.65750925104192 -4.29080178790903
vertex 37.8402373199345 10.7039188067233 -4.29080178790904
vertex 39.0661437849964 11.8771285141044 -4.29080178790904
endloop
endfacet
facet normal -7.79533538739292e-007 -1.04448801080403e-006 -0.999999999999151
outer loop
vertex 37.9968852675545 5.65750925104192 -4.29080178790903
vertex 39.0661437849964 11.8771285141044 -4.29080178790904
vertex 40.5235609856353 7.04321466646008 -4.29080178790904
endloop
endfacet
facet normal -7.79533538739292e-007 -1.04448801080403e-006 -0.999999999999151
outer loop
vertex 40.5235609856353 7.04321466646008 -4.29080178790904
vertex 39.0661437849964 11.8771285141044 -4.29080178790904
vertex 39.946629484045 13.3276500107892 -4.29080178790903
endloop
endfacet
facet normal -7.79533538739292e-007 -1.04448801080403e-006 -0.999999999999151
outer loop
vertex 40.5235609856353 7.04321466646008 -4.29080178790904
vertex 39.946629484045 13.3276500107892 -4.29080178790903
vertex 40.4216907717615 14.9566326538787 -4.29080178790903
endloop
endfacet
facet normal -7.79533538739292e-007 -1.04448801080403e-006 -0.999999999999151
outer loop
vertex 40.5235609856353 7.04321466646008 -4.29080178790904
vertex 40.4216907717615 14.9566326538787 -4.29080178790903
vertex 40.4589530064641 16.6530639682674 -4.29080178790903
endloop
endfacet
facet normal -0.866023883975278 -1.59594559789866e-016 -0.500002632377444
outer loop
vertex 1.61803 12.1301749910098 28.3848546871996
vertex 1.82709 12.1301749910098 28.0227546871996
vertex 1.82709 5.78017499100975 28.0227546871996
endloop
endfacet
facet normal 0.0 1.0 -2.4980018054066e-016
outer loop
vertex 9.875 12.1301749910097 30.2092546871996
vertex 1.61803 12.1301749910098 28.3848546871996
vertex 1.33826 12.1301749910098 28.6955546871996
endloop
endfacet
facet normal 0.0 1.0 -2.4980018054066e-016
outer loop
vertex 9.875 12.1301749910097 30.2092546871996
vertex 1.95629 12.1301749910097 27.6250546871996
vertex 1.82709 12.1301749910098 28.0227546871996
endloop
endfacet
facet normal 0.951070967541124 -6.93889390390723e-018 0.308972514474008
outer loop
vertex -1.82709 12.1301749910098 26.3957546871996
vertex -1.95629 12.1301749910098 26.7934546871996
vertex -1.82709 5.78017499100976 26.3957546871995
endloop
endfacet
facet normal -0.0 -5.59482469102441e-016 1.0
outer loop
vertex 22.5 5.78017499100975 24.2092546871996
vertex 9.875 12.1301749910098 24.2092546871996
vertex 9.875 5.78017499100975 24.2092546871996
endloop
endfacet
facet normal -0.0 -5.59482469102441e-016 1.0
outer loop
vertex 9.875 12.1301749910098 24.2092546871996
vertex 22.5 5.78017499100975 24.2092546871996
vertex 22.5 12.1301749910098 24.2092546871996
endloop
endfacet
facet normal 0.994519990844826 1.56125112837913e-017 -0.104546582010166
outer loop
vertex -2.0 12.1301749910098 27.2092546871996
vertex -1.95629 12.1301749910097 27.6250546871996
vertex -1.95629 5.78017499100975 27.6250546871996
endloop
endfacet
facet normal 0.0 1.0 -2.4980018054066e-016
outer loop
vertex -9.875 12.1301749910097 30.2092546871996
vertex -1.82709 12.1301749910098 28.0227546871996
vertex -1.95629 12.1301749910097 27.6250546871996
endloop
endfacet
facet normal 0.994519990844825 -3.46944695195361e-017 0.104546582010166
outer loop
vertex -2.0 12.1301749910098 27.2092546871996
vertex -1.95629 5.78017499100976 26.7934546871996
vertex -1.95629 12.1301749910098 26.7934546871996
endloop
endfacet
facet normal 0.866023883975278 5.55111512312578e-017 0.500002632377444
outer loop
vertex -1.82709 12.1301749910098 26.3957546871996
vertex -1.61803 5.78017499100976 26.0336546871996
vertex -1.61803 12.1301749910097 26.0336546871996
endloop
endfacet
facet normal 0.743127623269063 -1.38777878078145e-016 0.669149710852866
outer loop
vertex -1.61803 12.1301749910097 26.0336546871996
vertex -1.33826 5.78017499100975 25.7229546871996
vertex -1.33826 12.1301749910097 25.7229546871996
endloop
endfacet
facet normal 0.587847431344494 -4.16333634234434e-017 0.808971814998323
outer loop
vertex -1.0 12.1301749910098 25.4771546871996
vertex -1.33826 12.1301749910097 25.7229546871996
vertex -1.0 5.78017499100976 25.4771546871996
endloop
endfacet
facet normal 0.406612439155889 1.66533453693773e-016 0.913600746674224
outer loop
vertex -0.618034 12.1301749910098 25.3071546871996
vertex -1.0 12.1301749910098 25.4771546871996
vertex -0.618034 5.78017499100975 25.3071546871996
endloop
endfacet
facet normal 0.0 1.0 -2.4980018054066e-016
outer loop
vertex 9.875 12.1301749910097 30.2092546871996
vertex 1.95629 12.1301749910098 26.7934546871996
vertex 2.0 12.1301749910098 27.2092546871996
endloop
endfacet
facet normal -0.994519990844826 -1.56125112837913e-017 0.104546582010166
outer loop
vertex 2.0 12.1301749910098 27.2092546871996
vertex 1.95629 12.1301749910098 26.7934546871996
vertex 2.0 5.78017499100976 27.2092546871996
endloop
endfacet
facet normal 0.0 1.0 -2.4980018054066e-016
outer loop
vertex 9.875 12.1301749910097 30.2092546871996
vertex 2.0 12.1301749910098 27.2092546871996
vertex 1.95629 12.1301749910097 27.6250546871996
endloop
endfacet
facet normal 0.0 1.0 -2.4980018054066e-016
outer loop
vertex 9.875 12.1301749910097 30.2092546871996
vertex 1.82709 12.1301749910098 26.3957546871996
vertex 1.95629 12.1301749910098 26.7934546871996
endloop
endfacet
facet normal 0.207841335382732 2.22044604925031e-016 0.978162552598658
outer loop
vertex -0.209057 12.1301749910098 25.2202546871996
vertex -0.618034 12.1301749910098 25.3071546871996
vertex -0.209057 5.78017499100975 25.2202546871995
endloop
endfacet
facet normal -0.951070967541124 1.38777878078145e-017 0.308972514474008
outer loop
vertex 1.82709 12.1301749910098 26.3957546871996
vertex 1.95629 5.78017499100976 26.7934546871996
vertex 1.95629 12.1301749910098 26.7934546871996
endloop
endfacet
facet normal 0.0 1.0 -2.4980018054066e-016
outer loop
vertex 9.875 12.1301749910097 30.2092546871996
vertex 1.61803 12.1301749910097 26.0336546871996
vertex 1.82709 12.1301749910098 26.3957546871996
endloop
endfacet
facet normal 0.0 1.0 -2.4980018054066e-016
outer loop
vertex 9.875 12.1301749910097 30.2092546871996
vertex 1.33826 12.1301749910097 25.7229546871996
vertex 1.61803 12.1301749910097 26.0336546871996
endloop
endfacet
facet normal -0.743127623269063 -1.38777878078145e-016 0.669149710852866
outer loop
vertex 1.33826 12.1301749910097 25.7229546871996
vertex 1.61803 5.78017499100976 26.0336546871996
vertex 1.61803 12.1301749910097 26.0336546871996
endloop
endfacet
facet normal 0.0 1.0 -2.4980018054066e-016
outer loop
vertex 9.875 12.1301749910097 30.2092546871996
vertex 1.0 12.1301749910098 25.4771546871996
vertex 1.33826 12.1301749910097 25.7229546871996
endloop
endfacet
facet normal -0.866023883975278 1.59594559789866e-016 0.500002632377444
outer loop
vertex 1.82709 12.1301749910098 26.3957546871996
vertex 1.61803 12.1301749910097 26.0336546871996
vertex 1.82709 5.78017499100976 26.3957546871995
endloop
endfacet
facet normal -0.587847431344494 -4.16333634234434e-017 0.808971814998323
outer loop
vertex 1.33826 12.1301749910097 25.7229546871996
vertex 1.0 12.1301749910098 25.4771546871996
vertex 1.33826 5.78017499100975 25.7229546871996
endloop
endfacet
facet normal 0.0 1.0 -2.4980018054066e-016
outer loop
vertex 9.875 12.1301749910097 30.2092546871996
vertex 9.875 12.1301749910098 24.2092546871996
vertex 1.0 12.1301749910098 25.4771546871996
endloop
endfacet
facet normal -0.951070967541124 6.93889390390723e-018 -0.308972514474008
outer loop
vertex 1.82709 12.1301749910098 28.0227546871996
vertex 1.95629 12.1301749910097 27.6250546871996
vertex 1.95629 5.78017499100975 27.6250546871996
endloop
endfacet
facet normal -0.994519990844825 3.46944695195361e-017 -0.104546582010166
outer loop
vertex 2.0 12.1301749910098 27.2092546871996
vertex 2.0 5.78017499100976 27.2092546871996
vertex 1.95629 12.1301749910097 27.6250546871996
endloop
endfacet
facet normal 0.0 1.0 -2.4980018054066e-016
outer loop
vertex -9.875 12.1301749910097 30.2092546871996
vertex -0.209057 12.1301749910097 29.1982546871996
vertex -0.618034 12.1301749910098 29.1113546871996
endloop
endfacet
facet normal 0.207841335382732 -2.22044604925031e-016 -0.978162552598658
outer loop
vertex -0.209057 5.78017499100976 29.1982546871995
vertex -0.618034 12.1301749910098 29.1113546871996
vertex -0.209057 12.1301749910097 29.1982546871996
endloop
endfacet
facet normal 0.0 1.0 -2.4980018054066e-016
outer loop
vertex -9.875 12.1301749910097 30.2092546871996
vertex -0.618034 12.1301749910098 29.1113546871996
vertex -1.0 12.1301749910098 28.9413546871996
endloop
endfacet
facet normal 0.0 1.0 -2.4980018054066e-016
outer loop
vertex -9.875 12.1301749910097 30.2092546871996
vertex 0.209057 12.1301749910097 29.1982546871996
vertex -0.209057 12.1301749910097 29.1982546871996
endloop
endfacet
facet normal 0.0 1.0 -2.4980018054066e-016
outer loop
vertex -9.875 12.1301749910097 30.2092546871996
vertex -1.0 12.1301749910098 28.9413546871996
vertex -1.33826 12.1301749910098 28.6955546871996
endloop
endfacet
facet normal 0.587847431344491 1.38777878078145e-017 -0.808971814998325
outer loop
vertex -1.0 5.78017499100976 28.9413546871996
vertex -1.33826 12.1301749910098 28.6955546871996
vertex -1.0 12.1301749910098 28.9413546871996
endloop
endfacet
facet normal 0.0 1.0 -2.4980018054066e-016
outer loop
vertex -9.875 12.1301749910097 30.2092546871996
vertex -1.33826 12.1301749910098 28.6955546871996
vertex -1.61803 12.1301749910098 28.3848546871996
endloop
endfacet
facet normal -0.743127623269063 1.38777878078145e-016 -0.669149710852866
outer loop
vertex 1.61803 12.1301749910098 28.3848546871996
vertex 1.61803 5.78017499100975 28.3848546871996
vertex 1.33826 12.1301749910098 28.6955546871996
endloop
endfacet
facet normal 0.0 1.0 -2.4980018054066e-016
outer loop
vertex 9.875 12.1301749910097 30.2092546871996
vertex 1.33826 12.1301749910098 28.6955546871996
vertex 1.0 12.1301749910098 28.9413546871996
endloop
endfacet
facet normal 0.406612439155892 -4.16333634234434e-017 -0.913600746674222
outer loop
vertex -0.618034 5.78017499100976 29.1113546871996
vertex -1.0 12.1301749910098 28.9413546871996
vertex -0.618034 12.1301749910098 29.1113546871996
endloop
endfacet
facet normal -0.587847431344491 1.38777878078145e-017 -0.808971814998325
outer loop
vertex 1.33826 5.78017499100976 28.6955546871996
vertex 1.0 12.1301749910098 28.9413546871996
vertex 1.33826 12.1301749910098 28.6955546871996
endloop
endfacet
facet normal 0.0 1.0 -2.4980018054066e-016
outer loop
vertex 9.875 12.1301749910097 30.2092546871996
vertex 1.0 12.1301749910098 28.9413546871996
vertex 0.618034 12.1301749910098 29.1113546871996
endloop
endfacet
facet normal -0.406612439155892 -4.16333634234434e-017 -0.913600746674222
outer loop
vertex 1.0 5.78017499100976 28.9413546871996
vertex 0.618034 12.1301749910098 29.1113546871996
vertex 1.0 12.1301749910098 28.9413546871996
endloop
endfacet
facet normal 0.0 1.0 -2.4980018054066e-016
outer loop
vertex 9.875 12.1301749910097 30.2092546871996
vertex 0.618034 12.1301749910098 29.1113546871996
vertex 0.209057 12.1301749910097 29.1982546871996
endloop
endfacet
facet normal 0.0 1.0 -2.4980018054066e-016
outer loop
vertex 9.875 12.1301749910097 30.2092546871996
vertex 0.209057 12.1301749910097 29.1982546871996
vertex -9.875 12.1301749910097 30.2092546871996
endloop
endfacet
facet normal 0.0 2.4980018054066e-016 1.0
outer loop
vertex 9.875 12.1301749910097 30.2092546871996
vertex -9.875 12.1301749910097 30.2092546871996
vertex 9.875 5.78017499100976 30.2092546871995
endloop
endfacet
facet normal -0.207841335382732 -2.22044604925031e-016 -0.978162552598658
outer loop
vertex 0.618034 5.78017499100976 29.1113546871996
vertex 0.209057 12.1301749910097 29.1982546871996
vertex 0.618034 12.1301749910098 29.1113546871996
endloop
endfacet
facet normal 0.0 -2.4980018054066e-016 -1.0
outer loop
vertex 0.209057 5.78017499100976 29.1982546871995
vertex -0.209057 12.1301749910097 29.1982546871996
vertex 0.209057 12.1301749910097 29.1982546871996
endloop
endfacet
facet normal 0.743127623269063 1.38777878078145e-016 -0.669149710852866
outer loop
vertex -1.61803 12.1301749910098 28.3848546871996
vertex -1.33826 12.1301749910098 28.6955546871996
vertex -1.33826 5.78017499100976 28.6955546871996
endloop
endfacet
facet normal 0.0 1.0 -2.4980018054066e-016
outer loop
vertex -9.875 12.1301749910097 30.2092546871996
vertex -1.61803 12.1301749910098 28.3848546871996
vertex -1.82709 12.1301749910098 28.0227546871996
endloop
endfacet
facet normal 0.866023883975278 -1.59594559789866e-016 -0.500002632377444
outer loop
vertex -1.61803 12.1301749910098 28.3848546871996
vertex -1.61803 5.78017499100975 28.3848546871996
vertex -1.82709 12.1301749910098 28.0227546871996
endloop
endfacet
facet normal 0.951070967541124 6.93889390390723e-018 -0.308972514474008
outer loop
vertex -1.82709 12.1301749910098 28.0227546871996
vertex -1.82709 5.78017499100975 28.0227546871996
vertex -1.95629 12.1301749910097 27.6250546871996
endloop
endfacet
facet normal 0.0 2.4980018054066e-016 1.0
outer loop
vertex 0.209057 12.1301749910098 25.2202546871996
vertex -0.209057 12.1301749910098 25.2202546871996
vertex 0.209057 5.78017499100975 25.2202546871995
endloop
endfacet
facet normal 1.0 0.0 0.0
outer loop
vertex 9.875 12.1301749910098 24.2092546871996
vertex 9.875 12.1301749910097 30.2092546871996
vertex 9.875 5.78017499100976 30.2092546871995
endloop
endfacet
facet normal -0.406612439155889 1.66533453693773e-016 0.913600746674224
outer loop
vertex 1.0 12.1301749910098 25.4771546871996
vertex 0.618034 12.1301749910098 25.3071546871996
vertex 1.0 5.78017499100976 25.4771546871996
endloop
endfacet
facet normal -0.207841335382732 2.22044604925031e-016 0.978162552598658
outer loop
vertex 0.618034 12.1301749910098 25.3071546871996
vertex 0.209057 12.1301749910098 25.2202546871996
vertex 0.618034 5.78017499100975 25.3071546871996
endloop
endfacet
facet normal 0.0 2.4980018054066e-016 1.0
outer loop
vertex -22.5 5.78017499100976 7.55925468719957
vertex -28.0 12.1301749910098 7.55925468719957
vertex -28.0 5.78017499100976 7.55925468719957
endloop
endfacet
facet normal -1.0 0.0 0.0
outer loop
vertex -9.875 12.1301749910098 24.2092546871996
vertex -9.875 5.78017499100975 24.2092546871996
vertex -9.875 5.78017499100976 30.2092546871995
endloop
endfacet
facet normal 0.0 2.4980018054066e-016 1.0
outer loop
vertex 9.875 5.78017499100976 30.2092546871995
vertex -9.875 12.1301749910097 30.2092546871996
vertex -9.875 5.78017499100976 30.2092546871995
endloop
endfacet
facet normal -1.0 0.0 0.0
outer loop
vertex -22.5 12.1301749910098 -4.29074531280043
vertex -22.5 5.78017499100976 -4.29074531280042
vertex -22.5 5.78017499100976 2.15925468719957
endloop
endfacet
facet normal 0.994519990844826 -1.56125112837913e-017 0.104546582010166
outer loop
vertex -2.0 12.1301749910098 27.2092546871996
vertex -2.0 5.78017499100976 27.2092546871996
vertex -1.95629 5.78017499100976 26.7934546871996
endloop
endfacet
facet normal 0.994519990844825 3.46944695195361e-017 -0.104546582010166
outer loop
vertex -2.0 12.1301749910098 27.2092546871996
vertex -1.95629 5.78017499100975 27.6250546871996
vertex -2.0 5.78017499100976 27.2092546871996
endloop
endfacet
facet normal 0.207841335382732 2.08166817117217e-016 0.978162552598658
outer loop
vertex -0.209057 5.78017499100975 25.2202546871995
vertex -0.618034 12.1301749910098 25.3071546871996
vertex -0.618034 5.78017499100975 25.3071546871996
endloop
endfacet
facet normal -0.951070967541124 6.93889390390723e-018 -0.308972514474008
outer loop
vertex 1.82709 12.1301749910098 28.0227546871996
vertex 1.95629 5.78017499100975 27.6250546871996
vertex 1.82709 5.78017499100975 28.0227546871996
endloop
endfacet
facet normal -0.866023883975278 -1.59594559789866e-016 -0.500002632377444
outer loop
vertex 1.61803 12.1301749910098 28.3848546871996
vertex 1.82709 5.78017499100975 28.0227546871996
vertex 1.61803 5.78017499100975 28.3848546871996
endloop
endfacet
facet normal -0.743127623269063 1.38777878078145e-016 -0.669149710852866
outer loop
vertex 1.33826 12.1301749910098 28.6955546871996
vertex 1.61803 5.78017499100975 28.3848546871996
vertex 1.33826 5.78017499100976 28.6955546871996
endloop
endfacet
facet normal -0.207841335382732 -2.08166817117217e-016 -0.978162552598658
outer loop
vertex 0.618034 5.78017499100976 29.1113546871996
vertex 0.209057 5.78017499100976 29.1982546871995
vertex 0.209057 12.1301749910097 29.1982546871996
endloop
endfacet
facet normal 0.866023883975278 -1.59594559789866e-016 -0.500002632377444
outer loop
vertex -1.82709 12.1301749910098 28.0227546871996
vertex -1.61803 5.78017499100975 28.3848546871996
vertex -1.82709 5.78017499100975 28.0227546871996
endloop
endfacet
facet normal 0.951070967541124 6.93889390390723e-018 -0.308972514474008
outer loop
vertex -1.95629 12.1301749910097 27.6250546871996
vertex -1.82709 5.78017499100975 28.0227546871996
vertex -1.95629 5.78017499100975 27.6250546871996
endloop
endfacet
facet normal 0.999999999479624 3.22589422784016e-005 -3.36510085102732e-007
outer loop
vertex 22.5002981825238 7.78014792837974 9.69404492897262
vertex 22.5000140408813 5.78017544477568 10.690427074498
vertex 22.5003441674011 5.78014833895956 9.69404492760462
endloop
endfacet
facet normal 0.999999999479624 3.22589422784016e-005 -3.36510085102732e-007
outer loop
vertex 22.4998417012289 12.1300585298833 3.69404493820629
vertex 22.5002981825238 7.78014792837974 9.69404492897262
vertex 22.4999417163022 7.78014792633373 3.69404493956164
endloop
endfacet
facet normal 0.999999999479624 3.22589422784016e-005 -3.36510085102732e-007
outer loop
vertex 22.5000140408813 5.78017544477568 10.690427074498
vertex 22.5 12.1301749910098 24.2092546871996
vertex 22.5 5.78017499100975 24.2092546871996
endloop
endfacet
facet normal 0.999999999479624 3.22589422784016e-005 -3.36510085102732e-007
outer loop
vertex 22.5 12.1301749910098 24.2092546871996
vertex 22.5000140408813 5.78017544477568 10.690427074498
vertex 22.5002981825238 7.78014792837974 9.69404492897262
endloop
endfacet
facet normal 0.999999999479624 3.22589422784016e-005 -3.36510085102732e-007
outer loop
vertex 22.5 12.1301749910098 24.2092546871996
vertex 22.5002981825238 7.78014792837974 9.69404492897262
vertex 22.4998417012289 12.1300585298833 3.69404493820629
endloop
endfacet
facet normal 0.0 -1.0 2.4980018054066e-016
outer loop
vertex 9.875 5.78017499100976 30.2092546871995
vertex 0.209057 5.78017499100976 29.1982546871995
vertex 0.618034 5.78017499100976 29.1113546871996
endloop
endfacet
facet normal 0.626036739164802 0.779793563051769 1.54573197009068e-005
outer loop
vertex 29.9282471392865 10.8777062348232 -4.29080178790904
vertex 28.7549841409979 12.1034972074301 3.69391621272587
vertex 29.928193848379 10.8775907423683 3.69391621272586
endloop
endfacet
facet normal 0.806529911528442 0.591193286172777 1.39340017786257e-005
outer loop
vertex 28.7549841409979 12.1034972074301 3.69391621272587
vertex 29.9282471392865 10.8777062348232 -4.29080178790904
vertex 28.7550374319053 12.103612699885 -4.29080178790904
endloop
endfacet
facet normal 0.806530670037606 0.591192251382352 1.3933991873599e-005
outer loop
vertex 28.7550374319053 12.103612699885 -4.29080178790904
vertex 27.9390385256577 13.5912809388175 3.69391621272586
vertex 28.7549841409979 12.1034972074301 3.69391621272587
endloop
endfacet
facet normal 0.932060052393931 0.362303820846628 1.14611040336007e-005
outer loop
vertex 27.9390385256577 13.5912809388175 3.69391621272586
vertex 28.7550374319053 12.103612699885 -4.29080178790904
vertex 27.9390918165652 13.5913964312724 -4.29080178790903
endloop
endfacet
facet normal -0.108722132972291 0.994072179278525 1.36528222050711e-005
outer loop
vertex 34.704129302542 9.48478152090057 3.69391621272586
vertex 36.3524535885472 9.88797319138313 -4.29080178790903
vertex 34.7041825934495 9.48489701335549 -4.29080178790904
endloop
endfacet
facet normal -0.362303851648571 0.932060040425621 1.1063434069861e-005
outer loop
vertex 36.3524535885472 9.88797319138313 -4.29080178790903
vertex 34.704129302542 9.48478152090057 3.69391621272586
vertex 36.3524002976397 9.88785769892822 3.69391621272586
endloop
endfacet
facet normal 0.152266261195012 0.9883395092109 1.5311769737525e-005
outer loop
vertex 33.0077512790607 9.52215924805807 -4.29080178790904
vertex 34.704129302542 9.48478152090057 3.69391621272586
vertex 34.7041825934495 9.48489701335549 -4.29080178790904
endloop
endfacet
facet normal -0.108722132972291 0.994072179278525 1.36528222050711e-005
outer loop
vertex 34.704129302542 9.48478152090057 3.69391621272586
vertex 33.0077512790607 9.52215924805807 -4.29080178790904
vertex 33.0076979881533 9.52204375560315 3.69391621272586
endloop
endfacet
facet normal -0.988339259987038 0.152267879570738 -4.39385646841401e-006
outer loop
vertex 40.4216374808541 14.9565171614238 3.69391621272586
vertex 39.946629484045 13.3276500107892 -4.29080178790903
vertex 39.9465761931375 13.3275345183343 3.69391621272586
endloop
endfacet
facet normal -0.915253634979529 0.402878125065981 -2.81201299643011e-007
outer loop
vertex 39.946629484045 13.3276500107892 -4.29080178790903
vertex 40.4216374808541 14.9565171614238 3.69391621272586
vertex 40.4216907717615 14.9566326538787 -4.29080178790903
endloop
endfacet
facet normal -0.99407222853589 -0.108721683147077 -8.20712080584385e-006
outer loop
vertex 40.4588997155566 16.6529484758125 3.69391621272586
vertex 40.4216907717615 14.9566326538787 -4.29080178790903
vertex 40.4216374808541 14.9565171614238 3.69391621272586
endloop
endfacet
facet normal -0.988339647456906 0.152265364562831 -4.39389543197641e-006
outer loop
vertex 40.4216907717615 14.9566326538787 -4.29080178790903
vertex 40.4588997155566 16.6529484758125 3.69391621272586
vertex 40.4589530064641 16.6530639682674 -4.29080178790903
endloop
endfacet
facet normal -0.915252568570801 0.402880547711691 -2.81159140710245e-007
outer loop
vertex 39.9465761931375 13.3275345183343 3.69391621272586
vertex 39.0661437849964 11.8771285141044 -4.29080178790904
vertex 39.0660904940889 11.8770130216495 3.69391621272586
endloop
endfacet
facet normal -0.779794567557773 0.62603548812552 3.85065762370059e-006
outer loop
vertex 39.0661437849964 11.8771285141044 -4.29080178790904
vertex 39.9465761931375 13.3275345183343 3.69391621272586
vertex 39.946629484045 13.3276500107892 -4.29080178790903
endloop
endfacet
facet normal -0.591191834975147 0.806530975350059 7.72013400247105e-006
outer loop
vertex 37.8401840290271 10.7038033142684 3.69391621272586
vertex 39.0661437849964 11.8771285141044 -4.29080178790904
vertex 37.8402373199345 10.7039188067233 -4.29080178790904
endloop
endfacet
facet normal -0.779794567557773 0.62603548812552 3.85065762370059e-006
outer loop
vertex 39.0661437849964 11.8771285141044 -4.29080178790904
vertex 37.8401840290271 10.7038033142684 3.69391621272586
vertex 39.0660904940889 11.8770130216495 3.69391621272586
endloop
endfacet
facet normal -0.932060718540898 -0.362302107117345 -1.14610836934931e-005
outer loop
vertex 40.055823537529 18.3012194709102 3.69391621272586
vertex 40.4589530064641 16.6530639682674 -4.29080178790903
vertex 40.4588997155566 16.6529484758125 3.69391621272586
endloop
endfacet
facet normal -0.99407198184636 -0.108723938673562 -8.20715178376717e-006
outer loop
vertex 40.4589530064641 16.6530639682674 -4.29080178790903
vertex 40.055823537529 18.3012194709102 3.69391621272586
vertex 40.0558768284364 18.3013349633651 -4.29080178790905
endloop
endfacet
facet normal 0.988339259987038 -0.152267879570738 4.39385646580302e-006
outer loop
vertex 27.5732778732401 16.9360987407589 -4.29080178790904
vertex 28.0482858700492 18.5649658913934 3.69391621272586
vertex 27.5732245823326 16.9359832483039 3.69391621272586
endloop
endfacet
facet normal 0.915253634979529 -0.402878125065981 2.81201296735022e-007
outer loop
vertex 28.0482858700492 18.5649658913934 3.69391621272586
vertex 27.5732778732401 16.9360987407589 -4.29080178790904
vertex 28.0483391609567 18.5650813838483 -4.29080178790904
endloop
endfacet
facet normal 0.915252568570801 -0.402880547711691 2.8115913780226e-007
outer loop
vertex 28.0483391609567 18.5650813838483 -4.29080178790904
vertex 28.9287715690978 20.0154873880782 3.69391621272586
vertex 28.0482858700492 18.5649658913934 3.69391621272586
endloop
endfacet
facet normal 0.779794567557774 -0.626035488125519 -3.85065762590171e-006
outer loop
vertex 28.9287715690978 20.0154873880782 3.69391621272586
vertex 28.0483391609567 18.5650813838483 -4.29080178790904
vertex 28.9288248600052 20.0156028805331 -4.29080178790904
endloop
endfacet
facet normal 0.591193702662496 -0.806529606321187 -7.72010173651032e-006
outer loop
vertex 30.1546780341596 21.1886970954593 3.69391621272586
vertex 28.9288248600052 20.0156028805331 -4.29080178790904
vertex 30.1547313250671 21.1888125879142 -4.29080178790904
endloop
endfacet
facet normal 0.779792959351844 -0.626037491313792 -3.85069733373917e-006
outer loop
vertex 28.9288248600052 20.0156028805331 -4.29080178790904
vertex 30.1546780341596 21.1886970954593 3.69391621272586
vertex 28.9287715690978 20.0154873880782 3.69391621272586
endloop
endfacet
facet normal 0.362302076323412 -0.932060730515638 -1.10634559006341e-005
outer loop
vertex 31.6425150564544 22.0047582032544 -4.29080178790903
vertex 30.1546780341596 21.1886970954593 3.69391621272586
vertex 30.1547313250671 21.1888125879142 -4.29080178790904
endloop
endfacet
facet normal 0.591193702662496 -0.806529606321187 -7.72010173651032e-006
outer loop
vertex 30.1546780341596 21.1886970954593 3.69391621272586
vertex 31.6425150564544 22.0047582032544 -4.29080178790903
vertex 31.642461765547 22.0046427107995 3.69391621272586
endloop
endfacet
facet normal 0.99407222853589 0.108721683147076 8.20712080408496e-006
outer loop
vertex 27.5360156385375 15.2396674263701 -4.29080178790903
vertex 27.5732245823326 16.9359832483039 3.69391621272586
vertex 27.5359623476301 15.2395519339152 3.69391621272586
endloop
endfacet
facet normal 0.988339647456906 -0.152265364562831 4.39389542936545e-006
outer loop
vertex 27.5732245823326 16.9359832483039 3.69391621272586
vertex 27.5360156385375 15.2396674263701 -4.29080178790903
vertex 27.5732778732401 16.9360987407589 -4.29080178790904
endloop
endfacet
facet normal 0.932060718540898 0.362302107117345 1.14610836918396e-005
outer loop
vertex 27.9390918165652 13.5913964312724 -4.29080178790903
vertex 27.5359623476301 15.2395519339152 3.69391621272586
vertex 27.9390385256577 13.5912809388175 3.69391621272586
endloop
endfacet
facet normal 0.99407198184636 0.108723938673562 8.2071517820083e-006
outer loop
vertex 27.5359623476301 15.2395519339152 3.69391621272586
vertex 27.9390918165652 13.5913964312724 -4.29080178790903
vertex 27.5360156385375 15.2396674263701 -4.29080178790903
endloop
endfacet
facet normal -0.362303851648571 0.932060040425621 1.1063434069861e-005
outer loop
vertex 36.3524535885472 9.88797319138313 -4.29080178790903
vertex 37.8401840290271 10.7038033142684 3.69391621272586
vertex 37.8402373199345 10.7039188067233 -4.29080178790904
endloop
endfacet
facet normal -0.591191834975147 0.806530975350059 7.72013400247105e-006
outer loop
vertex 37.8401840290271 10.7038033142684 3.69391621272586
vertex 36.3524535885472 9.88797319138313 -4.29080178790903
vertex 36.3524002976397 9.88785769892822 3.69391621272586
endloop
endfacet
facet normal 0.62603624013706 0.779793963682795 1.54573221651416e-005
outer loop
vertex 29.928193848379 10.8775907423683 3.69391621272586
vertex 31.3787686359713 9.99722053577463 -4.29080178790903
vertex 29.9282471392865 10.8777062348232 -4.29080178790904
endloop
endfacet
facet normal 0.402879314953289 0.915253111073156 1.59272541560199e-005
outer loop
vertex 31.3787686359713 9.99722053577463 -4.29080178790903
vertex 29.928193848379 10.8775907423683 3.69391621272586
vertex 31.3787153450638 9.99710504331972 3.69391621272586
endloop
endfacet
facet normal 0.402879314953289 0.915253111073156 1.59272541560199e-005
outer loop
vertex 31.3787686359713 9.99722053577463 -4.29080178790903
vertex 33.0076979881533 9.52204375560315 3.69391621272586
vertex 33.0077512790607 9.52215924805807 -4.29080178790904
endloop
endfacet
facet normal 0.15226698290333 0.988339398022292 1.53117729460348e-005
outer loop
vertex 33.0076979881533 9.52204375560315 3.69391621272586
vertex 31.3787686359713 9.99722053577463 -4.29080178790903
vertex 31.3787153450638 9.99710504331972 3.69391621272586
endloop
endfacet
facet normal -0.626036739164805 -0.779793563051766 -1.54573197011728e-005
outer loop
vertex 38.0666682148077 21.0149096673594 3.69391621272585
vertex 36.6162000090304 21.8955108588629 -4.29080178790905
vertex 38.0667215057152 21.0150251598143 -4.29080178790905
endloop
endfacet
facet normal -0.40287935772275 -0.915253092246744 -1.59272541689354e-005
outer loop
vertex 36.6162000090304 21.8955108588629 -4.29080178790905
vertex 38.0666682148077 21.0149096673594 3.69391621272585
vertex 36.6161467181229 21.895395366408 3.69391621272586
endloop
endfacet
facet normal -0.40287931495329 -0.915253111073156 -1.5927254155796e-005
outer loop
vertex 36.6161467181229 21.895395366408 3.69391621272586
vertex 34.9872173659409 22.3705721465795 -4.29080178790902
vertex 36.6162000090304 21.8955108588629 -4.29080178790905
endloop
endfacet
facet normal -0.152266982903328 -0.988339398022292 -1.53117729459089e-005
outer loop
vertex 34.9872173659409 22.3705721465795 -4.29080178790902
vertex 36.6161467181229 21.895395366408 3.69391621272586
vertex 34.9871640750334 22.3704566541245 3.69391621272585
endloop
endfacet
facet normal 0.108723488840007 -0.994072030985712 -1.36528110110832e-005
outer loop
vertex 33.2907327606447 22.4077188888271 3.69391621272586
vertex 31.6425150564544 22.0047582032544 -4.29080178790903
vertex 33.2907860515522 22.4078343812821 -4.29080178790905
endloop
endfacet
facet normal 0.362302076323412 -0.932060730515638 -1.10634559006341e-005
outer loop
vertex 31.6425150564544 22.0047582032544 -4.29080178790903
vertex 33.2907327606447 22.4077188888271 3.69391621272586
vertex 31.642461765547 22.0046427107995 3.69391621272586
endloop
endfacet
facet normal -0.152266982903328 -0.988339398022292 -1.53117729459089e-005
outer loop
vertex 34.9872173659409 22.3705721465795 -4.29080178790902
vertex 33.2907327606447 22.4077188888271 3.69391621272586
vertex 33.2907860515522 22.4078343812821 -4.29080178790905
endloop
endfacet
facet normal 0.108723488840007 -0.994072030985712 -1.36528110110832e-005
outer loop
vertex 33.2907327606447 22.4077188888271 3.69391621272586
vertex 34.9872173659409 22.3705721465795 -4.29080178790902
vertex 34.9871640750334 22.3704566541245 3.69391621272585
endloop
endfacet
facet normal -0.806530670037607 -0.591192251382351 -1.39339918749777e-005
outer loop
vertex 39.2398779221888 19.7890032022976 3.69391621272586
vertex 40.0558768284364 18.3013349633651 -4.29080178790905
vertex 40.055823537529 18.3012194709102 3.69391621272586
endloop
endfacet
facet normal -0.932060052393931 -0.362303820846629 -1.14611040352541e-005
outer loop
vertex 40.0558768284364 18.3013349633651 -4.29080178790905
vertex 39.2398779221888 19.7890032022976 3.69391621272586
vertex 39.2399312130963 19.7891186947525 -4.29080178790904
endloop
endfacet
facet normal -0.626036739164805 -0.779793563051766 -1.54573197011728e-005
outer loop
vertex 38.0666682148077 21.0149096673594 3.69391621272585
vertex 39.2399312130963 19.7891186947525 -4.29080178790904
vertex 39.2398779221888 19.7890032022976 3.69391621272586
endloop
endfacet
facet normal -0.806529911528443 -0.591193286172776 -1.39340017800044e-005
outer loop
vertex 39.2399312130963 19.7891186947525 -4.29080178790904
vertex 38.0666682148077 21.0149096673594 3.69391621272585
vertex 38.0667215057152 21.0150251598143 -4.29080178790905
endloop
endfacet
facet normal 0.988339366809268 -0.152267186271357 2.44684160020727e-007
outer loop
vertex 44.9075958533947 14.2655202925163 -4.29080178790903
vertex 44.1008144365911 11.4991035727185 3.69362607792237
vertex 44.1008080152494 11.4990490624328 -4.29080178790903
endloop
endfacet
facet normal 0.915253321805175 -0.40287883652599 2.01440684563566e-006
outer loop
vertex 44.1008144365911 11.4991035727185 3.69362607792237
vertex 44.9075958533947 14.2655202925163 -4.29080178790903
vertex 44.9076022747364 14.265574802802 3.69362607792237
endloop
endfacet
facet normal 0.915252881742988 -0.402879836250336 2.01441402474109e-006
outer loop
vertex 44.1008080152494 11.4990490624328 -4.29080178790903
vertex 42.6055017853169 9.03570962176426 3.69362607792237
vertex 42.6054953639752 9.03565511147855 -4.29080178790903
endloop
endfacet
facet normal 0.779794066591067 -0.626036112134171 3.64685906828268e-006
outer loop
vertex 42.6055017853169 9.03570962176426 3.69362607792237
vertex 44.1008080152494 11.4990490624328 -4.29080178790903
vertex 44.1008144365911 11.4991035727185 3.69362607792237
endloop
endfacet
facet normal 0.77979346032036 -0.626036867307588 3.64686471149105e-006
outer loop
vertex 42.6054953639752 9.03565511147855 -4.29080178790903
vertex 40.523567406977 7.04326917674579 3.69362607792237
vertex 40.5235609856353 7.04321466646008 -4.29080178790904
endloop
endfacet
facet normal 0.591193082796645 -0.806530060709513 5.03078390966834e-006
outer loop
vertex 40.523567406977 7.04326917674579 3.69362607792237
vertex 42.6054953639752 9.03565511147855 -4.29080178790903
vertex 42.6055017853169 9.03570962176426 3.69362607792237
endloop
endfacet
facet normal 0.362302714374134 -0.932060482544061 6.07187070605643e-006
outer loop
vertex 37.9968852675545 5.65750925104192 -4.29080178790903
vertex 35.1976634057325 4.97302690958398 3.69362607792237
vertex 35.1976569843908 4.97297239929828 -4.29080178790904
endloop
endfacet
facet normal 0.108722938263872 -0.994072091274265 6.69916585963216e-006
outer loop
vertex 35.1976634057325 4.97302690958398 3.69362607792237
vertex 37.9968852675545 5.65750925104192 -4.29080178790903
vertex 37.9968916888962 5.65756376132762 3.69362607792237
endloop
endfacet
facet normal 0.108722938263872 -0.994072091274265 6.69916585963216e-006
outer loop
vertex 35.1976634057325 4.97302690958398 3.69362607792237
vertex 32.3166389176983 5.03625416642489 -4.29080178790903
vertex 35.1976569843908 4.97297239929828 -4.29080178790904
endloop
endfacet
facet normal -0.152266601969368 -0.988339456804951 6.86992518048642e-006
outer loop
vertex 32.3166389176983 5.03625416642489 -4.29080178790903
vertex 35.1976634057325 4.97302690958398 3.69362607792237
vertex 32.3166453390401 5.03630867671059 3.69362607792237
endloop
endfacet
facet normal -0.152266601969368 -0.988339456804951 6.86992518048642e-006
outer loop
vertex 32.3166389176983 5.03625416642489 -4.29080178790903
vertex 29.5501741089566 5.84309651485585 3.69362607792238
vertex 29.5501676876149 5.84304200457015 -4.29080178790904
endloop
endfacet
facet normal -0.279968145517879 -0.960009290293236 6.77921483341337e-006
outer loop
vertex 29.5501741089566 5.84309651485585 3.69362607792238
vertex 32.3166389176983 5.03625416642489 -4.29080178790903
vertex 32.3166453390401 5.03630867671059 3.69362607792237
endloop
endfacet
facet normal 0.591193082796645 -0.806530060709513 5.03078390966834e-006
outer loop
vertex 40.523567406977 7.04326917674579 3.69362607792237
vertex 37.9968852675545 5.65750925104192 -4.29080178790903
vertex 40.5235609856353 7.04321466646008 -4.29080178790904
endloop
endfacet
facet normal 0.362302714374134 -0.932060482544061 6.07187070605643e-006
outer loop
vertex 37.9968852675545 5.65750925104192 -4.29080178790903
vertex 40.523567406977 7.04326917674579 3.69362607792237
vertex 37.9968916888962 5.65756376132762 3.69362607792237
endloop
endfacet
facet normal 0.932060568321963 0.362302493738245 -3.22306022208177e-006
outer loop
vertex 44.2863407687777 19.9457666423724 -4.29080178790903
vertex 44.970884041863 17.1465928694944 3.69362607792236
vertex 44.9708776205213 17.1465383592087 -4.29080178790903
endloop
endfacet
facet normal 0.994072044700969 0.108723364285965 -1.54172824177455e-006
outer loop
vertex 44.970884041863 17.1465928694944 3.69362607792236
vertex 44.2863407687777 19.9457666423724 -4.29080178790903
vertex 44.2863471901194 19.9458211526581 3.69362607792237
endloop
endfacet
facet normal 0.994072165746623 0.108722257543898 -1.54172078331268e-006
outer loop
vertex 44.9708776205213 17.1465383592087 -4.29080178790903
vertex 44.9076022747364 14.265574802802 3.69362607792237
vertex 44.9075958533947 14.2655202925163 -4.29080178790903
endloop
endfacet
facet normal 0.988339540655189 -0.152266057863955 2.44676316486409e-007
outer loop
vertex 44.9076022747364 14.265574802802 3.69362607792237
vertex 44.9708776205213 17.1465383592087 -4.29080178790903
vertex 44.970884041863 17.1465928694944 3.69362607792236
endloop
endfacet
facet normal 0.626036726021946 0.779793573734592 -5.82718849965183e-006
outer loop
vertex 40.908194908341 24.5543767387932 -4.29080178790904
vertex 42.9006417747012 22.472496870739 3.69362607792236
vertex 42.9006353533595 22.4724423604533 -4.29080178790903
endloop
endfacet
facet normal 0.806530043712243 0.591193105987866 -4.68475772512688e-006
outer loop
vertex 42.9006417747012 22.472496870739 3.69362607792236
vertex 40.908194908341 24.5543767387932 -4.29080178790904
vertex 40.9082013296827 24.5544312490789 3.69362607792237
endloop
endfacet
facet normal 0.806530537991883 0.591192431670583 -4.68475351902848e-006
outer loop
vertex 42.9006353533595 22.4724423604533 -4.29080178790903
vertex 44.2863471901194 19.9458211526581 3.69362607792237
vertex 44.2863407687777 19.9457666423724 -4.29080178790903
endloop
endfacet
facet normal 0.93206020272538 0.362303434271793 -3.22306634914968e-006
outer loop
vertex 44.2863471901194 19.9458211526581 3.69362607792237
vertex 42.9006353533595 22.4724423604533 -4.29080178790903
vertex 42.9006417747012 22.472496870739 3.69362607792236
endloop
endfacet
facet normal -0.854836678905774 0.518897150107028 -2.85506160976196e-006
outer loop
vertex 23.8941670510939 20.3937368424904 3.69362607792237
vertex 25.3894732810264 22.857076283159 -4.29080178790904
vertex 23.8941606297522 20.3936823322047 -4.29080178790903
endloop
endfacet
facet normal -0.779794066591066 0.626036112134172 -3.64685906776127e-006
outer loop
vertex 25.3894732810264 22.857076283159 -4.29080178790904
vertex 23.8941670510939 20.3937368424904 3.69362607792237
vertex 25.3894797023681 22.8571307934447 3.69362607792238
endloop
endfacet
facet normal -0.70710300051027 0.7071105617237 -1.29679207894473e-005
outer loop
vertex 18.3679888453035 12.1299724957061 -4.29074531338535
vertex 22.499877710706 16.2619636102066 3.69384314536853
vertex 22.4998777098661 16.2618171761229 -4.29082108944081
endloop
endfacet
facet normal -0.70710300051027 0.7071105617237 -1.29679207894473e-005
outer loop
vertex 22.499877710706 16.2619636102066 3.69384314536853
vertex 18.3679888453035 12.1299724957061 -4.29074531338535
vertex 18.3679888461433 12.1301189297899 3.69391892142399
endloop
endfacet
facet normal -0.77979346032036 0.626036867307589 -3.64686471096964e-006
outer loop
vertex 25.3894797023681 22.8571307934447 3.69362607792238
vertex 27.4714076593663 24.8495167281775 -4.29080178790904
vertex 25.3894732810264 22.857076283159 -4.29080178790904
endloop
endfacet
facet normal -0.591193082796644 0.806530060709514 -5.03078390960535e-006
outer loop
vertex 27.4714076593663 24.8495167281775 -4.29080178790904
vertex 25.3894797023681 22.8571307934447 3.69362607792238
vertex 27.471414080708 24.8495712384632 3.69362607792238
endloop
endfacet
facet normal -0.591192454860601 0.806530520991355 -5.03078755699087e-006
outer loop
vertex 27.471414080708 24.8495712384632 3.69362607792238
vertex 29.9980833774471 26.2352221435956 -4.29080178790903
vertex 27.4714076593663 24.8495167281775 -4.29080178790904
endloop
endfacet
facet normal -0.362303213627116 0.932060288478485 -6.07186897996937e-006
outer loop
vertex 29.9980833774471 26.2352221435956 -4.29080178790903
vertex 27.471414080708 24.8495712384632 3.69362607792238
vertex 29.9980897987889 26.2352766538814 3.69362607792238
endloop
endfacet
facet normal -0.362303213627116 0.932060288478485 -6.07186897996937e-006
outer loop
vertex 29.9980833774471 26.2352221435956 -4.29080178790903
vertex 32.7973180819526 26.919813505625 3.69362607792236
vertex 32.7973116606109 26.9197589953393 -4.29080178790904
endloop
endfacet
facet normal -0.108722683561812 0.994072119131323 -6.69916625485018e-006
outer loop
vertex 32.7973180819526 26.919813505625 3.69362607792236
vertex 29.9980833774471 26.2352221435956 -4.29080178790903
vertex 29.9980897987889 26.2352766538814 3.69362607792238
endloop
endfacet
facet normal -0.108722683561812 0.994072119131323 -6.69916625485018e-006
outer loop
vertex 32.7973180819526 26.919813505625 3.69362607792236
vertex 35.6783297273033 26.8564772282126 -4.29080178790904
vertex 32.7973116606109 26.9197589953393 -4.29080178790904
endloop
endfacet
facet normal 0.152266642158886 0.98833945061323 -6.86992517047383e-006
outer loop
vertex 35.6783297273033 26.8564772282126 -4.29080178790904
vertex 32.7973180819526 26.919813505625 3.69362607792236
vertex 35.678336148645 26.8565317384983 3.69362607792237
endloop
endfacet
facet normal 0.152266601969367 0.988339456804951 -6.86992518042343e-006
outer loop
vertex 35.678336148645 26.8565317384983 3.69362607792237
vertex 38.4448009573868 26.0496893900674 -4.29080178790903
vertex 35.6783297273033 26.8564772282126 -4.29080178790904
endloop
endfacet
facet normal 0.402879489583469 0.915253034318797 -6.57250990870359e-006
outer loop
vertex 38.4448009573868 26.0496893900674 -4.29080178790903
vertex 35.678336148645 26.8565317384983 3.69362607792237
vertex 38.4448073787285 26.0497439003531 3.69362607792238
endloop
endfacet
facet normal 0.402879489583469 0.915253034318797 -6.57250990870359e-006
outer loop
vertex 38.4448009573868 26.0496893900674 -4.29080178790903
vertex 40.9082013296827 24.5544312490789 3.69362607792237
vertex 40.908194908341 24.5543767387932 -4.29080178790904
endloop
endfacet
facet normal 0.626036253407642 0.779793953160299 -5.82719070992739e-006
outer loop
vertex 40.9082013296827 24.5544312490789 3.69362607792237
vertex 38.4448009573868 26.0496893900674 -4.29080178790903
vertex 38.4448073787285 26.0497439003531 3.69362607792238
endloop
endfacet
facet normal 1.03098204433497e-005 4.44252936780463e-006 0.999999999936986
outer loop
vertex 29.5501741089566 5.84309651485585 3.69362607792238
vertex 26.025080905068 7.8116224258847 3.693835508058
vertex 26.025080905068 5.8116224258847 3.693835508058
endloop
endfacet
facet normal 1.03098204433497e-005 4.44252936780463e-006 0.999999999936986
outer loop
vertex 26.025080905068 7.8116224258847 3.693835508058
vertex 29.5501741089566 5.84309651485585 3.69362607792238
vertex 27.5359623476301 15.2395519339152 3.69391621272586
endloop
endfacet
facet normal 1.03098204433497e-005 4.44252936780463e-006 0.999999999936986
outer loop
vertex 26.025080905068 7.8116224258847 3.693835508058
vertex 27.5359623476301 15.2395519339152 3.69391621272586
vertex 27.471414080708 24.8495712384632 3.69362607792238
endloop
endfacet
facet normal 1.03098204433497e-005 4.44252936780463e-006 0.999999999936986
outer loop
vertex 27.5359623476301 15.2395519339152 3.69391621272586
vertex 29.5501741089566 5.84309651485585 3.69362607792238
vertex 27.9390385256577 13.5912809388175 3.69391621272586
endloop
endfacet
facet normal 1.03098204433497e-005 4.44252936780463e-006 0.999999999936986
outer loop
vertex 27.9390385256577 13.5912809388175 3.69391621272586
vertex 29.5501741089566 5.84309651485585 3.69362607792238
vertex 28.7549841409979 12.1034972074301 3.69391621272587
endloop
endfacet
facet normal 1.03098204433497e-005 4.44252936780463e-006 0.999999999936986
outer loop
vertex 28.7549841409979 12.1034972074301 3.69391621272587
vertex 29.5501741089566 5.84309651485585 3.69362607792238
vertex 29.928193848379 10.8775907423683 3.69391621272586
endloop
endfacet
facet normal 1.03098204433497e-005 4.44252936780463e-006 0.999999999936986
outer loop
vertex 29.928193848379 10.8775907423683 3.69391621272586
vertex 29.5501741089566 5.84309651485585 3.69362607792238
vertex 32.3166453390401 5.03630867671059 3.69362607792237
endloop
endfacet
facet normal 1.03098204433497e-005 4.44252936780463e-006 0.999999999936986
outer loop
vertex 29.928193848379 10.8775907423683 3.69391621272586
vertex 32.3166453390401 5.03630867671059 3.69362607792237
vertex 31.3787153450638 9.99710504331972 3.69391621272586
endloop
endfacet
facet normal 1.03098204433497e-005 4.44252936780463e-006 0.999999999936986
outer loop
vertex 31.3787153450638 9.99710504331972 3.69391621272586
vertex 32.3166453390401 5.03630867671059 3.69362607792237
vertex 33.0076979881533 9.52204375560315 3.69391621272586
endloop
endfacet
facet normal 1.03098204433497e-005 4.44252936780463e-006 0.999999999936986
outer loop
vertex 33.0076979881533 9.52204375560315 3.69391621272586
vertex 32.3166453390401 5.03630867671059 3.69362607792237
vertex 35.1976634057325 4.97302690958398 3.69362607792237
endloop
endfacet
facet normal 1.03098204433497e-005 4.44252936780463e-006 0.999999999936986
outer loop
vertex 33.0076979881533 9.52204375560315 3.69391621272586
vertex 35.1976634057325 4.97302690958398 3.69362607792237
vertex 34.704129302542 9.48478152090057 3.69391621272586
endloop
endfacet
facet normal 1.03098204433497e-005 4.44252936780463e-006 0.999999999936986
outer loop
vertex 34.704129302542 9.48478152090057 3.69391621272586
vertex 35.1976634057325 4.97302690958398 3.69362607792237
vertex 36.3524002976397 9.88785769892822 3.69391621272586
endloop
endfacet
facet normal 1.03098204433497e-005 4.44252936780463e-006 0.999999999936986
outer loop
vertex 36.3524002976397 9.88785769892822 3.69391621272586
vertex 35.1976634057325 4.97302690958398 3.69362607792237
vertex 37.9968916888962 5.65756376132762 3.69362607792237
endloop
endfacet
facet normal 1.03098204433497e-005 4.44252936780463e-006 0.999999999936986
outer loop
vertex 36.3524002976397 9.88785769892822 3.69391621272586
vertex 37.9968916888962 5.65756376132762 3.69362607792237
vertex 37.8401840290271 10.7038033142684 3.69391621272586
endloop
endfacet
facet normal 1.03098204433497e-005 4.44252936780463e-006 0.999999999936986
outer loop
vertex 37.8401840290271 10.7038033142684 3.69391621272586
vertex 37.9968916888962 5.65756376132762 3.69362607792237
vertex 39.0660904940889 11.8770130216495 3.69391621272586
endloop
endfacet
facet normal 1.03098204433497e-005 4.44252936780463e-006 0.999999999936986
outer loop
vertex 39.0660904940889 11.8770130216495 3.69391621272586
vertex 37.9968916888962 5.65756376132762 3.69362607792237
vertex 40.523567406977 7.04326917674579 3.69362607792237
endloop
endfacet
facet normal 1.03098204433497e-005 4.44252936780463e-006 0.999999999936986
outer loop
vertex 39.0660904940889 11.8770130216495 3.69391621272586
vertex 40.523567406977 7.04326917674579 3.69362607792237
vertex 39.9465761931375 13.3275345183343 3.69391621272586
endloop
endfacet
facet normal 1.03098204433497e-005 4.44252936780463e-006 0.999999999936986
outer loop
vertex 39.9465761931375 13.3275345183343 3.69391621272586
vertex 40.523567406977 7.04326917674579 3.69362607792237
vertex 40.4216374808541 14.9565171614238 3.69391621272586
endloop
endfacet
facet normal 1.03098204433497e-005 4.44252936780463e-006 0.999999999936986
outer loop
vertex 40.4216374808541 14.9565171614238 3.69391621272586
vertex 40.523567406977 7.04326917674579 3.69362607792237
vertex 40.4588997155566 16.6529484758125 3.69391621272586
endloop
endfacet
facet normal 1.03098204433497e-005 4.44252936780463e-006 0.999999999936986
outer loop
vertex 27.471414080708 24.8495712384632 3.69362607792238
vertex 27.5732245823326 16.9359832483039 3.69391621272586
vertex 29.9980897987889 26.2352766538814 3.69362607792238
endloop
endfacet
facet normal 1.03098204433497e-005 4.44252936780463e-006 0.999999999936986
outer loop
vertex 27.5732245823326 16.9359832483039 3.69391621272586
vertex 27.471414080708 24.8495712384632 3.69362607792238
vertex 27.5359623476301 15.2395519339152 3.69391621272586
endloop
endfacet
facet normal 1.03098204433497e-005 4.44252936780463e-006 0.999999999936986
outer loop
vertex 29.9980897987889 26.2352766538814 3.69362607792238
vertex 27.5732245823326 16.9359832483039 3.69391621272586
vertex 28.0482858700492 18.5649658913934 3.69391621272586
endloop
endfacet
facet normal 1.03098204433497e-005 4.44252936780463e-006 0.999999999936986
outer loop
vertex 29.9980897987889 26.2352766538814 3.69362607792238
vertex 28.0482858700492 18.5649658913934 3.69391621272586
vertex 28.9287715690978 20.0154873880782 3.69391621272586
endloop
endfacet
facet normal 1.03098204433497e-005 4.44252936780463e-006 0.999999999936986
outer loop
vertex 29.9980897987889 26.2352766538814 3.69362607792238
vertex 28.9287715690978 20.0154873880782 3.69391621272586
vertex 30.1546780341596 21.1886970954593 3.69391621272586
endloop
endfacet
facet normal 1.03098204433497e-005 4.44252936780463e-006 0.999999999936986
outer loop
vertex 29.9980897987889 26.2352766538814 3.69362607792238
vertex 30.1546780341596 21.1886970954593 3.69391621272586
vertex 32.7973180819526 26.919813505625 3.69362607792236
endloop
endfacet
facet normal 1.03098204433497e-005 4.44252936780463e-006 0.999999999936986
outer loop
vertex 32.7973180819526 26.919813505625 3.69362607792236
vertex 30.1546780341596 21.1886970954593 3.69391621272586
vertex 31.642461765547 22.0046427107995 3.69391621272586
endloop
endfacet
facet normal 1.03098204433497e-005 4.44252936780463e-006 0.999999999936986
outer loop
vertex 32.7973180819526 26.919813505625 3.69362607792236
vertex 31.642461765547 22.0046427107995 3.69391621272586
vertex 33.2907327606447 22.4077188888271 3.69391621272586
endloop
endfacet
facet normal 1.03098204433497e-005 4.44252936780463e-006 0.999999999936986
outer loop
vertex 32.7973180819526 26.919813505625 3.69362607792236
vertex 33.2907327606447 22.4077188888271 3.69391621272586
vertex 35.678336148645 26.8565317384983 3.69362607792237
endloop
endfacet
facet normal 1.03098204433497e-005 4.44252936780463e-006 0.999999999936986
outer loop
vertex 35.678336148645 26.8565317384983 3.69362607792237
vertex 33.2907327606447 22.4077188888271 3.69391621272586
vertex 34.9871640750334 22.3704566541245 3.69391621272585
endloop
endfacet
facet normal 1.03098204433497e-005 4.44252936780463e-006 0.999999999936986
outer loop
vertex 35.678336148645 26.8565317384983 3.69362607792237
vertex 34.9871640750334 22.3704566541245 3.69391621272585
vertex 36.6161467181229 21.895395366408 3.69391621272586
endloop
endfacet
facet normal 1.03098204433497e-005 4.44252936780463e-006 0.999999999936986
outer loop
vertex 35.678336148645 26.8565317384983 3.69362607792237
vertex 36.6161467181229 21.895395366408 3.69391621272586
vertex 38.4448073787285 26.0497439003531 3.69362607792238
endloop
endfacet
facet normal 1.03098204433497e-005 4.44252936780463e-006 0.999999999936986
outer loop
vertex 38.4448073787285 26.0497439003531 3.69362607792238
vertex 36.6161467181229 21.895395366408 3.69391621272586
vertex 38.0666682148077 21.0149096673594 3.69391621272585
endloop
endfacet
facet normal 1.03098204433497e-005 4.44252936780463e-006 0.999999999936986
outer loop
vertex 38.4448073787285 26.0497439003531 3.69362607792238
vertex 38.0666682148077 21.0149096673594 3.69391621272585
vertex 39.2398779221888 19.7890032022976 3.69391621272586
endloop
endfacet
facet normal 1.03098204433497e-005 4.44252936780463e-006 0.999999999936986
outer loop
vertex 38.4448073787285 26.0497439003531 3.69362607792238
vertex 39.2398779221888 19.7890032022976 3.69391621272586
vertex 40.9082013296827 24.5544312490789 3.69362607792237
endloop
endfacet
facet normal 1.03098204433497e-005 4.44252936780463e-006 0.999999999936986
outer loop
vertex 40.9082013296827 24.5544312490789 3.69362607792237
vertex 39.2398779221888 19.7890032022976 3.69391621272586
vertex 40.055823537529 18.3012194709102 3.69391621272586
endloop
endfacet
facet normal 1.03098204433497e-005 4.44252936780463e-006 0.999999999936986
outer loop
vertex 40.9082013296827 24.5544312490789 3.69362607792237
vertex 40.055823537529 18.3012194709102 3.69391621272586
vertex 40.4588997155566 16.6529484758125 3.69391621272586
endloop
endfacet
facet normal 1.03098204433497e-005 4.44252936780463e-006 0.999999999936986
outer loop
vertex 40.9082013296827 24.5544312490789 3.69362607792237
vertex 40.4588997155566 16.6529484758125 3.69391621272586
vertex 40.523567406977 7.04326917674579 3.69362607792237
endloop
endfacet
facet normal 1.03098204433497e-005 4.44252936780463e-006 0.999999999936986
outer loop
vertex 40.9082013296827 24.5544312490789 3.69362607792237
vertex 40.523567406977 7.04326917674579 3.69362607792237
vertex 42.6055017853169 9.03570962176426 3.69362607792237
endloop
endfacet
facet normal 1.03098204433497e-005 4.44252936780463e-006 0.999999999936986
outer loop
vertex 40.9082013296827 24.5544312490789 3.69362607792237
vertex 42.6055017853169 9.03570962176426 3.69362607792237
vertex 42.9006417747012 22.472496870739 3.69362607792236
endloop
endfacet
facet normal 1.03098204433497e-005 4.44252936780463e-006 0.999999999936986
outer loop
vertex 42.9006417747012 22.472496870739 3.69362607792236
vertex 42.6055017853169 9.03570962176426 3.69362607792237
vertex 44.1008144365911 11.4991035727185 3.69362607792237
endloop
endfacet
facet normal 1.03098204433497e-005 4.44252936780463e-006 0.999999999936986
outer loop
vertex 42.9006417747012 22.472496870739 3.69362607792236
vertex 44.1008144365911 11.4991035727185 3.69362607792237
vertex 44.2863471901194 19.9458211526581 3.69362607792237
endloop
endfacet
facet normal 1.03098204433497e-005 4.44252936780463e-006 0.999999999936986
outer loop
vertex 44.2863471901194 19.9458211526581 3.69362607792237
vertex 44.1008144365911 11.4991035727185 3.69362607792237
vertex 44.9076022747364 14.265574802802 3.69362607792237
endloop
endfacet
facet normal 1.03098204433497e-005 4.44252936780463e-006 0.999999999936986
outer loop
vertex 44.2863471901194 19.9458211526581 3.69362607792237
vertex 44.9076022747364 14.265574802802 3.69362607792237
vertex 44.970884041863 17.1465928694944 3.69362607792236
endloop
endfacet
facet normal 1.03098204433497e-005 4.44252936780463e-006 0.999999999936986
outer loop
vertex 22.4998417012289 12.1300585298833 3.69404493820629
vertex 22.499877710706 16.2619636102066 3.69384314536853
vertex 18.3679888461433 12.1301189297899 3.69391892142399
endloop
endfacet
facet normal 1.03098204433497e-005 4.44252936780463e-006 0.999999999936986
outer loop
vertex 22.499877710706 16.2619636102066 3.69384314536853
vertex 22.4998417012289 12.1300585298833 3.69404493820629
vertex 22.4999417163022 7.78014792633373 3.69404493956164
endloop
endfacet
facet normal 1.03098204433497e-005 4.44252936780463e-006 0.999999999936986
outer loop
vertex 22.499877710706 16.2619636102066 3.69384314536853
vertex 22.4999417163022 7.78014792633373 3.69404493956164
vertex 23.8941670510939 20.3937368424904 3.69362607792237
endloop
endfacet
facet normal 1.03098204433497e-005 4.44252936780463e-006 0.999999999936986
outer loop
vertex 23.8941670510939 20.3937368424904 3.69362607792237
vertex 22.4999417163022 7.78014792633373 3.69404493956164
vertex 26.025080905068 7.8116224258847 3.693835508058
endloop
endfacet
facet normal 1.03098204433497e-005 4.44252936780463e-006 0.999999999936986
outer loop
vertex 23.8941670510939 20.3937368424904 3.69362607792237
vertex 26.025080905068 7.8116224258847 3.693835508058
vertex 25.3894797023681 22.8571307934447 3.69362607792238
endloop
endfacet
facet normal 1.03098204433497e-005 4.44252936780463e-006 0.999999999936986
outer loop
vertex 25.3894797023681 22.8571307934447 3.69362607792238
vertex 26.025080905068 7.8116224258847 3.693835508058
vertex 27.471414080708 24.8495712384632 3.69362607792238
endloop
endfacet
facet normal -0.00892822758543898 0.999960142581644 5.30094271581757e-007
outer loop
vertex 22.5002981825238 7.78014792837974 9.69404492897262
vertex 26.025080905068 7.8116224258847 3.693835508058
vertex 22.4999417163022 7.78014792633373 3.69404493956164
endloop
endfacet
facet normal 0.862233924531507 9.91225706748354e-006 0.50651027560035
outer loop
vertex 26.025080905068 5.8116224258847 3.693835508058
vertex 22.5002981825238 7.78014792837974 9.69404492897262
vertex 22.5003441674011 5.78014833895956 9.69404492760462
endloop
endfacet
facet normal 0.862233924531507 9.91225706748354e-006 0.50651027560035
outer loop
vertex 22.5002981825238 7.78014792837974 9.69404492897262
vertex 26.025080905068 5.8116224258847 3.693835508058
vertex 26.025080905068 7.8116224258847 3.693835508058
endloop
endfacet
facet normal 0.00892213829627964 -0.99996019693195 -1.96251356913255e-007
outer loop
vertex 29.5501741089566 5.84309651485585 3.69362607792238
vertex 22.4992299992105 5.78017499100976 -4.29074531296461
vertex 29.5501676876149 5.84304200457015 -4.29080178790904
endloop
endfacet
facet normal 0.00892213829627964 -0.99996019693195 -1.96251356913255e-007
outer loop
vertex 22.4992299992105 5.78017499100976 -4.29074531296461
vertex 29.5501741089566 5.84309651485585 3.69362607792238
vertex 26.025080905068 5.8116224258847 3.693835508058
endloop
endfacet
facet normal 0.00892213829627964 -0.99996019693195 -1.96251356913255e-007
outer loop
vertex 22.4992299992105 5.78017499100976 -4.29074531296461
vertex 26.025080905068 5.8116224258847 3.693835508058
vertex 22.5003441674011 5.78014833895956 9.69404492760462
endloop
endfacet
endsolid InductiveSensorMount_V1
