solid OpenSCAD_Model
  facet normal -1 0 0
    outer loop
      vertex 0 50 0
      vertex 0 35.25 4.75
      vertex 0 50 10
    endloop
  endfacet
  facet normal -1 0 0
    outer loop
      vertex 0 50 0
      vertex 0 14.75 4.75
      vertex 0 35.25 4.75
    endloop
  endfacet
  facet normal -1 0 0
    outer loop
      vertex 0 0 0
      vertex 0 14.75 4.75
      vertex 0 50 0
    endloop
  endfacet
  facet normal -1 0 0
    outer loop
      vertex 0 0 10
      vertex 0 14.75 4.75
      vertex 0 0 0
    endloop
  endfacet
  facet normal -1 0 0
    outer loop
      vertex 0 14.75 4.75
      vertex 0 0 10
      vertex 0 14.75 10
    endloop
  endfacet
  facet normal -1 -0 0
    outer loop
      vertex 0 50 10
      vertex 0 35.25 4.75
      vertex 0 35.25 10
    endloop
  endfacet
  facet normal -0 0 1
    outer loop
      vertex 0 14.75 10
      vertex 10 0 10
      vertex 10 14.75 10
    endloop
  endfacet
  facet normal 0 0 1
    outer loop
      vertex 10 0 10
      vertex 0 14.75 10
      vertex 0 0 10
    endloop
  endfacet
  facet normal -0 0 1
    outer loop
      vertex 0 50 10
      vertex 10 35.25 10
      vertex 10 50 10
    endloop
  endfacet
  facet normal 0 0 1
    outer loop
      vertex 10 35.25 10
      vertex 0 50 10
      vertex 0 35.25 10
    endloop
  endfacet
  facet normal 1 0 0
    outer loop
      vertex 10 14.75 10
      vertex 10 0 10
      vertex 10 14.75 4.75
    endloop
  endfacet
  facet normal 1 -0 0
    outer loop
      vertex 10 14.75 4.75
      vertex 10 19.75 0
      vertex 10 19.75 4.75
    endloop
  endfacet
  facet normal 1 0 0
    outer loop
      vertex 10 0 0
      vertex 10 14.75 4.75
      vertex 10 0 10
    endloop
  endfacet
  facet normal 1 0 0
    outer loop
      vertex 10 14.75 4.75
      vertex 10 0 0
      vertex 10 19.75 0
    endloop
  endfacet
  facet normal 1 0 0
    outer loop
      vertex 10 35.25 4.75
      vertex 10 50 10
      vertex 10 35.25 10
    endloop
  endfacet
  facet normal 1 0 0
    outer loop
      vertex 10 50 10
      vertex 10 35.25 4.75
      vertex 10 50 0
    endloop
  endfacet
  facet normal 1 0 0
    outer loop
      vertex 10 25.25 0
      vertex 10 35.25 4.75
      vertex 10 25.25 4.75
    endloop
  endfacet
  facet normal 1 0 0
    outer loop
      vertex 10 35.25 4.75
      vertex 10 25.25 0
      vertex 10 50 0
    endloop
  endfacet
  facet normal 0 1 -0
    outer loop
      vertex 10 50 0
      vertex 0 50 10
      vertex 10 50 10
    endloop
  endfacet
  facet normal 0 1 0
    outer loop
      vertex 0 50 10
      vertex 10 50 0
      vertex 0 50 0
    endloop
  endfacet
  facet normal 0 0 -1
    outer loop
      vertex 10 0 0
      vertex 4.75 19.75 0
      vertex 10 19.75 0
    endloop
  endfacet
  facet normal -0 0 -1
    outer loop
      vertex 4.75 19.75 0
      vertex 0 0 0
      vertex 4.75 25.25 0
    endloop
  endfacet
  facet normal 0 0 -1
    outer loop
      vertex 0 0 0
      vertex 4.75 19.75 0
      vertex 10 0 0
    endloop
  endfacet
  facet normal 0 0 -1
    outer loop
      vertex 4.75 25.25 0
      vertex 10 50 0
      vertex 10 25.25 0
    endloop
  endfacet
  facet normal 0 0 -1
    outer loop
      vertex 4.75 25.25 0
      vertex 0 50 0
      vertex 10 50 0
    endloop
  endfacet
  facet normal 0 0 -1
    outer loop
      vertex 0 50 0
      vertex 4.75 25.25 0
      vertex 0 0 0
    endloop
  endfacet
  facet normal 0 -1 0
    outer loop
      vertex 0 0 0
      vertex 10 0 10
      vertex 0 0 10
    endloop
  endfacet
  facet normal 0 -1 -0
    outer loop
      vertex 10 0 10
      vertex 0 0 0
      vertex 10 0 0
    endloop
  endfacet
  facet normal 0 -1 0
    outer loop
      vertex 0 35.25 4.75
      vertex 10 35.25 10
      vertex 0 35.25 10
    endloop
  endfacet
  facet normal 0 -1 -0
    outer loop
      vertex 10 35.25 10
      vertex 0 35.25 4.75
      vertex 10 35.25 4.75
    endloop
  endfacet
  facet normal 0 0 1
    outer loop
      vertex 10 35.25 4.75
      vertex 4.75 25.25 4.75
      vertex 10 25.25 4.75
    endloop
  endfacet
  facet normal 0 0 1
    outer loop
      vertex 0 14.75 4.75
      vertex 4.75 25.25 4.75
      vertex 0 35.25 4.75
    endloop
  endfacet
  facet normal -0 0 1
    outer loop
      vertex 0 35.25 4.75
      vertex 4.75 25.25 4.75
      vertex 10 35.25 4.75
    endloop
  endfacet
  facet normal -0 0 1
    outer loop
      vertex 4.75 19.75 4.75
      vertex 10 14.75 4.75
      vertex 10 19.75 4.75
    endloop
  endfacet
  facet normal 0 0 1
    outer loop
      vertex 4.75 19.75 4.75
      vertex 0 14.75 4.75
      vertex 10 14.75 4.75
    endloop
  endfacet
  facet normal 0 0 1
    outer loop
      vertex 4.75 25.25 4.75
      vertex 0 14.75 4.75
      vertex 4.75 19.75 4.75
    endloop
  endfacet
  facet normal 0 1 -0
    outer loop
      vertex 10 14.75 4.75
      vertex 0 14.75 10
      vertex 10 14.75 10
    endloop
  endfacet
  facet normal 0 1 0
    outer loop
      vertex 0 14.75 10
      vertex 10 14.75 4.75
      vertex 0 14.75 4.75
    endloop
  endfacet
  facet normal 1 -0 0
    outer loop
      vertex 4.75 19.75 4.75
      vertex 4.75 25.25 0
      vertex 4.75 25.25 4.75
    endloop
  endfacet
  facet normal 1 0 0
    outer loop
      vertex 4.75 25.25 0
      vertex 4.75 19.75 4.75
      vertex 4.75 19.75 0
    endloop
  endfacet
  facet normal 0 1 -0
    outer loop
      vertex 10 19.75 0
      vertex 4.75 19.75 4.75
      vertex 10 19.75 4.75
    endloop
  endfacet
  facet normal 0 1 0
    outer loop
      vertex 4.75 19.75 4.75
      vertex 10 19.75 0
      vertex 4.75 19.75 0
    endloop
  endfacet
  facet normal 0 -1 0
    outer loop
      vertex 4.75 25.25 0
      vertex 10 25.25 4.75
      vertex 4.75 25.25 4.75
    endloop
  endfacet
  facet normal 0 -1 -0
    outer loop
      vertex 10 25.25 4.75
      vertex 4.75 25.25 0
      vertex 10 25.25 0
    endloop
  endfacet
  facet normal -1 0 0
    outer loop
      vertex 11 50 0
      vertex 11 35.25 4.75
      vertex 11 50 10
    endloop
  endfacet
  facet normal -1 0 0
    outer loop
      vertex 11 50 0
      vertex 11 14.75 4.75
      vertex 11 35.25 4.75
    endloop
  endfacet
  facet normal -1 0 0
    outer loop
      vertex 11 0 0
      vertex 11 14.75 4.75
      vertex 11 50 0
    endloop
  endfacet
  facet normal -1 0 0
    outer loop
      vertex 11 0 10
      vertex 11 14.75 4.75
      vertex 11 0 0
    endloop
  endfacet
  facet normal -1 0 0
    outer loop
      vertex 11 14.75 4.75
      vertex 11 0 10
      vertex 11 14.75 10
    endloop
  endfacet
  facet normal -1 -0 0
    outer loop
      vertex 11 50 10
      vertex 11 35.25 4.75
      vertex 11 35.25 10
    endloop
  endfacet
  facet normal 0 0 1
    outer loop
      vertex 16.25 14.75 10
      vertex 21 19.75 10
      vertex 16.25 19.75 10
    endloop
  endfacet
  facet normal 0 0 1
    outer loop
      vertex 21 19.75 10
      vertex 16.25 14.75 10
      vertex 21 0 10
    endloop
  endfacet
  facet normal 0 0 1
    outer loop
      vertex 11 0 10
      vertex 16.25 14.75 10
      vertex 11 14.75 10
    endloop
  endfacet
  facet normal 0 0 1
    outer loop
      vertex 16.25 14.75 10
      vertex 11 0 10
      vertex 21 0 10
    endloop
  endfacet
  facet normal 0 0 1
    outer loop
      vertex 21 50 10
      vertex 16.25 35.25 10
      vertex 21 30.25 10
    endloop
  endfacet
  facet normal -0 0 1
    outer loop
      vertex 11 50 10
      vertex 16.25 35.25 10
      vertex 21 50 10
    endloop
  endfacet
  facet normal 0 0 1
    outer loop
      vertex 16.25 35.25 10
      vertex 11 50 10
      vertex 11 35.25 10
    endloop
  endfacet
  facet normal 0 0 1
    outer loop
      vertex 21 30.25 10
      vertex 16.25 35.25 10
      vertex 16.25 30.25 10
    endloop
  endfacet
  facet normal 1 0 0
    outer loop
      vertex 21 19.75 10
      vertex 21 0 10
      vertex 21 19.75 4.75
    endloop
  endfacet
  facet normal 1 0 0
    outer loop
      vertex 21 30.25 4.75
      vertex 21 50 10
      vertex 21 30.25 10
    endloop
  endfacet
  facet normal 1 0 0
    outer loop
      vertex 21 50 10
      vertex 21 30.25 4.75
      vertex 21 50 0
    endloop
  endfacet
  facet normal 1 -0 0
    outer loop
      vertex 21 19.75 4.75
      vertex 21 50 0
      vertex 21 30.25 4.75
    endloop
  endfacet
  facet normal 1 0 0
    outer loop
      vertex 21 19.75 4.75
      vertex 21 0 0
      vertex 21 50 0
    endloop
  endfacet
  facet normal 1 0 0
    outer loop
      vertex 21 0 0
      vertex 21 19.75 4.75
      vertex 21 0 10
    endloop
  endfacet
  facet normal 0 1 -0
    outer loop
      vertex 21 50 0
      vertex 11 50 10
      vertex 21 50 10
    endloop
  endfacet
  facet normal 0 1 0
    outer loop
      vertex 11 50 10
      vertex 21 50 0
      vertex 11 50 0
    endloop
  endfacet
  facet normal 0 0 -1
    outer loop
      vertex 11 0 0
      vertex 21 50 0
      vertex 21 0 0
    endloop
  endfacet
  facet normal -0 0 -1
    outer loop
      vertex 21 50 0
      vertex 11 0 0
      vertex 11 50 0
    endloop
  endfacet
  facet normal 0 -1 0
    outer loop
      vertex 11 0 0
      vertex 21 0 10
      vertex 11 0 10
    endloop
  endfacet
  facet normal 0 -1 -0
    outer loop
      vertex 21 0 10
      vertex 11 0 0
      vertex 21 0 0
    endloop
  endfacet
  facet normal -1 0 0
    outer loop
      vertex 16.25 14.75 4.75
      vertex 16.25 19.75 10
      vertex 16.25 19.75 4.75
    endloop
  endfacet
  facet normal -1 -0 0
    outer loop
      vertex 16.25 19.75 10
      vertex 16.25 14.75 4.75
      vertex 16.25 14.75 10
    endloop
  endfacet
  facet normal -1 0 0
    outer loop
      vertex 16.25 30.25 4.75
      vertex 16.25 35.25 10
      vertex 16.25 35.25 4.75
    endloop
  endfacet
  facet normal -1 -0 0
    outer loop
      vertex 16.25 35.25 10
      vertex 16.25 30.25 4.75
      vertex 16.25 30.25 10
    endloop
  endfacet
  facet normal -0 0 1
    outer loop
      vertex 11 35.25 4.75
      vertex 16.25 30.25 4.75
      vertex 16.25 35.25 4.75
    endloop
  endfacet
  facet normal 0 0 1
    outer loop
      vertex 16.25 30.25 4.75
      vertex 11 35.25 4.75
      vertex 16.25 19.75 4.75
    endloop
  endfacet
  facet normal 0 0 1
    outer loop
      vertex 11 14.75 4.75
      vertex 16.25 19.75 4.75
      vertex 11 35.25 4.75
    endloop
  endfacet
  facet normal 0 0 1
    outer loop
      vertex 16.25 19.75 4.75
      vertex 11 14.75 4.75
      vertex 16.25 14.75 4.75
    endloop
  endfacet
  facet normal -0 0 1
    outer loop
      vertex 16.25 30.25 4.75
      vertex 21 19.75 4.75
      vertex 21 30.25 4.75
    endloop
  endfacet
  facet normal 0 0 1
    outer loop
      vertex 21 19.75 4.75
      vertex 16.25 30.25 4.75
      vertex 16.25 19.75 4.75
    endloop
  endfacet
  facet normal 0 1 -0
    outer loop
      vertex 16.25 14.75 4.75
      vertex 11 14.75 10
      vertex 16.25 14.75 10
    endloop
  endfacet
  facet normal 0 1 0
    outer loop
      vertex 11 14.75 10
      vertex 16.25 14.75 4.75
      vertex 11 14.75 4.75
    endloop
  endfacet
  facet normal 0 -1 0
    outer loop
      vertex 11 35.25 4.75
      vertex 16.25 35.25 10
      vertex 11 35.25 10
    endloop
  endfacet
  facet normal 0 -1 -0
    outer loop
      vertex 16.25 35.25 10
      vertex 11 35.25 4.75
      vertex 16.25 35.25 4.75
    endloop
  endfacet
  facet normal 0 1 -0
    outer loop
      vertex 21 19.75 4.75
      vertex 16.25 19.75 10
      vertex 21 19.75 10
    endloop
  endfacet
  facet normal 0 1 0
    outer loop
      vertex 16.25 19.75 10
      vertex 21 19.75 4.75
      vertex 16.25 19.75 4.75
    endloop
  endfacet
  facet normal 0 -1 0
    outer loop
      vertex 16.25 30.25 4.75
      vertex 21 30.25 10
      vertex 16.25 30.25 10
    endloop
  endfacet
  facet normal 0 -1 -0
    outer loop
      vertex 21 30.25 10
      vertex 16.25 30.25 4.75
      vertex 21 30.25 4.75
    endloop
  endfacet
  facet normal -1 0 0
    outer loop
      vertex 22 50 0
      vertex 22 35.25 4.75
      vertex 22 50 10
    endloop
  endfacet
  facet normal -1 0 0
    outer loop
      vertex 22 50 0
      vertex 22 29.75 4.75
      vertex 22 35.25 4.75
    endloop
  endfacet
  facet normal -1 0 0
    outer loop
      vertex 22 29.75 4.75
      vertex 22 25.25 4.75
      vertex 22 29.75 10
    endloop
  endfacet
  facet normal -1 0 0
    outer loop
      vertex 22 50 0
      vertex 22 25.25 4.75
      vertex 22 29.75 4.75
    endloop
  endfacet
  facet normal -1 0 0
    outer loop
      vertex 22 0 0
      vertex 22 25.25 4.75
      vertex 22 50 0
    endloop
  endfacet
  facet normal -1 -0 0
    outer loop
      vertex 22 25.25 4.75
      vertex 22 0 0
      vertex 22 14.75 4.75
    endloop
  endfacet
  facet normal -1 0 0
    outer loop
      vertex 22 0 10
      vertex 22 14.75 4.75
      vertex 22 0 0
    endloop
  endfacet
  facet normal -1 0 0
    outer loop
      vertex 22 14.75 4.75
      vertex 22 0 10
      vertex 22 14.75 10
    endloop
  endfacet
  facet normal -1 -0 0
    outer loop
      vertex 22 50 10
      vertex 22 35.25 4.75
      vertex 22 35.25 10
    endloop
  endfacet
  facet normal -1 -0 0
    outer loop
      vertex 22 29.75 10
      vertex 22 25.25 4.75
      vertex 22 25.25 10
    endloop
  endfacet
  facet normal -0 0 1
    outer loop
      vertex 22 14.75 10
      vertex 32 0 10
      vertex 32 14.75 10
    endloop
  endfacet
  facet normal 0 0 1
    outer loop
      vertex 32 0 10
      vertex 22 14.75 10
      vertex 22 0 10
    endloop
  endfacet
  facet normal -0 0 1
    outer loop
      vertex 22 50 10
      vertex 32 35.25 10
      vertex 32 50 10
    endloop
  endfacet
  facet normal 0 0 1
    outer loop
      vertex 32 35.25 10
      vertex 22 50 10
      vertex 22 35.25 10
    endloop
  endfacet
  facet normal -0 0 1
    outer loop
      vertex 22 29.75 10
      vertex 32 25.25 10
      vertex 32 29.75 10
    endloop
  endfacet
  facet normal 0 0 1
    outer loop
      vertex 32 25.25 10
      vertex 22 29.75 10
      vertex 22 25.25 10
    endloop
  endfacet
  facet normal 1 0 0
    outer loop
      vertex 32 14.75 10
      vertex 32 0 10
      vertex 32 14.75 4.75
    endloop
  endfacet
  facet normal 1 0 0
    outer loop
      vertex 32 29.75 10
      vertex 32 25.25 10
      vertex 32 29.75 4.75
    endloop
  endfacet
  facet normal 1 0 0
    outer loop
      vertex 32 35.25 4.75
      vertex 32 50 10
      vertex 32 35.25 10
    endloop
  endfacet
  facet normal 1 0 0
    outer loop
      vertex 32 50 10
      vertex 32 35.25 4.75
      vertex 32 50 0
    endloop
  endfacet
  facet normal 1 -0 0
    outer loop
      vertex 32 29.75 4.75
      vertex 32 50 0
      vertex 32 35.25 4.75
    endloop
  endfacet
  facet normal 1 0 0
    outer loop
      vertex 32 25.25 4.75
      vertex 32 29.75 4.75
      vertex 32 25.25 10
    endloop
  endfacet
  facet normal 1 -0 0
    outer loop
      vertex 32 25.25 4.75
      vertex 32 50 0
      vertex 32 29.75 4.75
    endloop
  endfacet
  facet normal 1 0 0
    outer loop
      vertex 32 0 0
      vertex 32 25.25 4.75
      vertex 32 14.75 4.75
    endloop
  endfacet
  facet normal 1 0 0
    outer loop
      vertex 32 25.25 4.75
      vertex 32 0 0
      vertex 32 50 0
    endloop
  endfacet
  facet normal 1 0 0
    outer loop
      vertex 32 0 0
      vertex 32 14.75 4.75
      vertex 32 0 10
    endloop
  endfacet
  facet normal 0 0 -1
    outer loop
      vertex 22 0 0
      vertex 32 50 0
      vertex 32 0 0
    endloop
  endfacet
  facet normal -0 0 -1
    outer loop
      vertex 32 50 0
      vertex 22 0 0
      vertex 22 50 0
    endloop
  endfacet
  facet normal 0 -1 0
    outer loop
      vertex 22 0 0
      vertex 32 0 10
      vertex 22 0 10
    endloop
  endfacet
  facet normal 0 -1 -0
    outer loop
      vertex 32 0 10
      vertex 22 0 0
      vertex 32 0 0
    endloop
  endfacet
  facet normal 0 1 -0
    outer loop
      vertex 32 50 0
      vertex 22 50 10
      vertex 32 50 10
    endloop
  endfacet
  facet normal 0 1 0
    outer loop
      vertex 22 50 10
      vertex 32 50 0
      vertex 22 50 0
    endloop
  endfacet
  facet normal -0 0 1
    outer loop
      vertex 22 25.25 4.75
      vertex 32 14.75 4.75
      vertex 32 25.25 4.75
    endloop
  endfacet
  facet normal 0 0 1
    outer loop
      vertex 32 14.75 4.75
      vertex 22 25.25 4.75
      vertex 22 14.75 4.75
    endloop
  endfacet
  facet normal 0 1 -0
    outer loop
      vertex 32 14.75 4.75
      vertex 22 14.75 10
      vertex 32 14.75 10
    endloop
  endfacet
  facet normal 0 1 0
    outer loop
      vertex 22 14.75 10
      vertex 32 14.75 4.75
      vertex 22 14.75 4.75
    endloop
  endfacet
  facet normal 0 -1 0
    outer loop
      vertex 22 25.25 4.75
      vertex 32 25.25 10
      vertex 22 25.25 10
    endloop
  endfacet
  facet normal 0 -1 -0
    outer loop
      vertex 32 25.25 10
      vertex 22 25.25 4.75
      vertex 32 25.25 4.75
    endloop
  endfacet
  facet normal -0 0 1
    outer loop
      vertex 22 35.25 4.75
      vertex 32 29.75 4.75
      vertex 32 35.25 4.75
    endloop
  endfacet
  facet normal 0 0 1
    outer loop
      vertex 32 29.75 4.75
      vertex 22 35.25 4.75
      vertex 22 29.75 4.75
    endloop
  endfacet
  facet normal 0 1 -0
    outer loop
      vertex 32 29.75 4.75
      vertex 22 29.75 10
      vertex 32 29.75 10
    endloop
  endfacet
  facet normal 0 1 0
    outer loop
      vertex 22 29.75 10
      vertex 32 29.75 4.75
      vertex 22 29.75 4.75
    endloop
  endfacet
  facet normal 0 -1 0
    outer loop
      vertex 22 35.25 4.75
      vertex 32 35.25 10
      vertex 22 35.25 10
    endloop
  endfacet
  facet normal 0 -1 -0
    outer loop
      vertex 32 35.25 10
      vertex 22 35.25 4.75
      vertex 32 35.25 4.75
    endloop
  endfacet
  facet normal -1 0 0
    outer loop
      vertex 33 50 0
      vertex 33 30.25 4.75
      vertex 33 50 10
    endloop
  endfacet
  facet normal -1 0 0
    outer loop
      vertex 33 50 0
      vertex 33 24.75 4.75
      vertex 33 30.25 4.75
    endloop
  endfacet
  facet normal -1 0 0
    outer loop
      vertex 33 0 0
      vertex 33 24.75 4.75
      vertex 33 50 0
    endloop
  endfacet
  facet normal -1 0 0
    outer loop
      vertex 33 0 10
      vertex 33 24.75 4.75
      vertex 33 0 0
    endloop
  endfacet
  facet normal -1 0 0
    outer loop
      vertex 33 24.75 4.75
      vertex 33 0 10
      vertex 33 24.75 10
    endloop
  endfacet
  facet normal -1 -0 0
    outer loop
      vertex 33 50 10
      vertex 33 30.25 4.75
      vertex 33 30.25 10
    endloop
  endfacet
  facet normal -0 0 1
    outer loop
      vertex 33 24.75 10
      vertex 43 0 10
      vertex 43 24.75 10
    endloop
  endfacet
  facet normal 0 0 1
    outer loop
      vertex 43 0 10
      vertex 33 24.75 10
      vertex 33 0 10
    endloop
  endfacet
  facet normal 0 0 1
    outer loop
      vertex 43 50 10
      vertex 37.75 35.25 10
      vertex 43 35.25 10
    endloop
  endfacet
  facet normal -0 0 1
    outer loop
      vertex 33 50 10
      vertex 37.75 35.25 10
      vertex 43 50 10
    endloop
  endfacet
  facet normal 0 0 1
    outer loop
      vertex 33 30.25 10
      vertex 37.75 35.25 10
      vertex 33 50 10
    endloop
  endfacet
  facet normal 0 0 1
    outer loop
      vertex 37.75 35.25 10
      vertex 33 30.25 10
      vertex 37.75 30.25 10
    endloop
  endfacet
  facet normal 1 -0 0
    outer loop
      vertex 43 0 10
      vertex 43 24.75 0
      vertex 43 24.75 10
    endloop
  endfacet
  facet normal 1 0 0
    outer loop
      vertex 43 24.75 0
      vertex 43 0 10
      vertex 43 0 0
    endloop
  endfacet
  facet normal 1 0 0
    outer loop
      vertex 43 35.25 4.75
      vertex 43 50 10
      vertex 43 35.25 10
    endloop
  endfacet
  facet normal 1 0 0
    outer loop
      vertex 43 50 10
      vertex 43 35.25 4.75
      vertex 43 50 0
    endloop
  endfacet
  facet normal 1 0 0
    outer loop
      vertex 43 30.25 0
      vertex 43 35.25 4.75
      vertex 43 30.25 4.75
    endloop
  endfacet
  facet normal 1 0 0
    outer loop
      vertex 43 35.25 4.75
      vertex 43 30.25 0
      vertex 43 50 0
    endloop
  endfacet
  facet normal 0 1 -0
    outer loop
      vertex 43 50 0
      vertex 33 50 10
      vertex 43 50 10
    endloop
  endfacet
  facet normal 0 1 0
    outer loop
      vertex 33 50 10
      vertex 43 50 0
      vertex 33 50 0
    endloop
  endfacet
  facet normal 0 0 -1
    outer loop
      vertex 43 0 0
      vertex 37.75 24.75 0
      vertex 43 24.75 0
    endloop
  endfacet
  facet normal 0 0 -1
    outer loop
      vertex 33 50 0
      vertex 37.75 24.75 0
      vertex 33 0 0
    endloop
  endfacet
  facet normal 0 0 -1
    outer loop
      vertex 33 0 0
      vertex 37.75 24.75 0
      vertex 43 0 0
    endloop
  endfacet
  facet normal 0 0 -1
    outer loop
      vertex 37.75 30.25 0
      vertex 43 50 0
      vertex 43 30.25 0
    endloop
  endfacet
  facet normal 0 0 -1
    outer loop
      vertex 37.75 30.25 0
      vertex 33 50 0
      vertex 43 50 0
    endloop
  endfacet
  facet normal 0 0 -1
    outer loop
      vertex 37.75 24.75 0
      vertex 33 50 0
      vertex 37.75 30.25 0
    endloop
  endfacet
  facet normal 0 -1 0
    outer loop
      vertex 33 0 0
      vertex 43 0 10
      vertex 33 0 10
    endloop
  endfacet
  facet normal 0 -1 -0
    outer loop
      vertex 43 0 10
      vertex 33 0 0
      vertex 43 0 0
    endloop
  endfacet
  facet normal 0 -1 0
    outer loop
      vertex 33 30.25 4.75
      vertex 37.75 30.25 10
      vertex 33 30.25 10
    endloop
  endfacet
  facet normal 0 -1 -0
    outer loop
      vertex 37.75 30.25 10
      vertex 33 30.25 4.75
      vertex 37.75 30.25 4.75
    endloop
  endfacet
  facet normal -0 0 1
    outer loop
      vertex 33 30.25 4.75
      vertex 37.75 24.75 4.75
      vertex 37.75 30.25 4.75
    endloop
  endfacet
  facet normal 0 0 1
    outer loop
      vertex 37.75 24.75 4.75
      vertex 33 30.25 4.75
      vertex 33 24.75 4.75
    endloop
  endfacet
  facet normal -0 0 1
    outer loop
      vertex 37.75 35.25 4.75
      vertex 43 30.25 4.75
      vertex 43 35.25 4.75
    endloop
  endfacet
  facet normal 0 0 1
    outer loop
      vertex 43 30.25 4.75
      vertex 37.75 35.25 4.75
      vertex 37.75 30.25 4.75
    endloop
  endfacet
  facet normal 0 1 0
    outer loop
      vertex 43 24.75 10
      vertex 37.75 24.75 4.75
      vertex 33 24.75 10
    endloop
  endfacet
  facet normal 0 1 -0
    outer loop
      vertex 43 24.75 0
      vertex 37.75 24.75 4.75
      vertex 43 24.75 10
    endloop
  endfacet
  facet normal 0 1 0
    outer loop
      vertex 37.75 24.75 4.75
      vertex 43 24.75 0
      vertex 37.75 24.75 0
    endloop
  endfacet
  facet normal 0 1 0
    outer loop
      vertex 33 24.75 10
      vertex 37.75 24.75 4.75
      vertex 33 24.75 4.75
    endloop
  endfacet
  facet normal 1 -0 0
    outer loop
      vertex 37.75 30.25 10
      vertex 37.75 35.25 4.75
      vertex 37.75 35.25 10
    endloop
  endfacet
  facet normal 1 0 0
    outer loop
      vertex 37.75 35.25 4.75
      vertex 37.75 30.25 10
      vertex 37.75 30.25 4.75
    endloop
  endfacet
  facet normal 0 -1 0
    outer loop
      vertex 37.75 35.25 4.75
      vertex 43 35.25 10
      vertex 37.75 35.25 10
    endloop
  endfacet
  facet normal 0 -1 -0
    outer loop
      vertex 43 35.25 10
      vertex 37.75 35.25 4.75
      vertex 43 35.25 4.75
    endloop
  endfacet
  facet normal 1 -0 0
    outer loop
      vertex 37.75 24.75 4.75
      vertex 37.75 30.25 0
      vertex 37.75 30.25 4.75
    endloop
  endfacet
  facet normal 1 0 0
    outer loop
      vertex 37.75 30.25 0
      vertex 37.75 24.75 4.75
      vertex 37.75 24.75 0
    endloop
  endfacet
  facet normal 0 -1 0
    outer loop
      vertex 37.75 30.25 0
      vertex 43 30.25 4.75
      vertex 37.75 30.25 4.75
    endloop
  endfacet
  facet normal 0 -1 -0
    outer loop
      vertex 43 30.25 4.75
      vertex 37.75 30.25 0
      vertex 43 30.25 0
    endloop
  endfacet
  facet normal 1 0 0
    outer loop
      vertex 54 14.75 10
      vertex 54 0 10
      vertex 54 14.75 4.75
    endloop
  endfacet
  facet normal 1 0 0
    outer loop
      vertex 54 35.25 4.75
      vertex 54 50 10
      vertex 54 35.25 10
    endloop
  endfacet
  facet normal 1 0 0
    outer loop
      vertex 54 50 10
      vertex 54 35.25 4.75
      vertex 54 50 0
    endloop
  endfacet
  facet normal 1 -0 0
    outer loop
      vertex 54 14.75 4.75
      vertex 54 50 0
      vertex 54 35.25 4.75
    endloop
  endfacet
  facet normal 1 0 0
    outer loop
      vertex 54 14.75 4.75
      vertex 54 0 0
      vertex 54 50 0
    endloop
  endfacet
  facet normal 1 0 0
    outer loop
      vertex 54 0 0
      vertex 54 14.75 4.75
      vertex 54 0 10
    endloop
  endfacet
  facet normal -0 0 1
    outer loop
      vertex 44 14.75 10
      vertex 54 0 10
      vertex 54 14.75 10
    endloop
  endfacet
  facet normal 0 0 1
    outer loop
      vertex 54 0 10
      vertex 44 14.75 10
      vertex 44 0 10
    endloop
  endfacet
  facet normal -0 0 1
    outer loop
      vertex 44 50 10
      vertex 54 35.25 10
      vertex 54 50 10
    endloop
  endfacet
  facet normal 0 0 1
    outer loop
      vertex 54 35.25 10
      vertex 44 50 10
      vertex 44 35.25 10
    endloop
  endfacet
  facet normal -1 0 0
    outer loop
      vertex 44 19.75 0
      vertex 44 14.75 4.75
      vertex 44 19.75 4.75
    endloop
  endfacet
  facet normal -1 0 0
    outer loop
      vertex 44 0 0
      vertex 44 14.75 4.75
      vertex 44 19.75 0
    endloop
  endfacet
  facet normal -1 0 0
    outer loop
      vertex 44 0 10
      vertex 44 14.75 4.75
      vertex 44 0 0
    endloop
  endfacet
  facet normal -1 0 0
    outer loop
      vertex 44 14.75 4.75
      vertex 44 0 10
      vertex 44 14.75 10
    endloop
  endfacet
  facet normal -1 0 0
    outer loop
      vertex 44 50 0
      vertex 44 35.25 4.75
      vertex 44 50 10
    endloop
  endfacet
  facet normal -1 0 0
    outer loop
      vertex 44 25.25 0
      vertex 44 35.25 4.75
      vertex 44 50 0
    endloop
  endfacet
  facet normal -1 -0 0
    outer loop
      vertex 44 35.25 4.75
      vertex 44 25.25 0
      vertex 44 25.25 4.75
    endloop
  endfacet
  facet normal -1 -0 0
    outer loop
      vertex 44 50 10
      vertex 44 35.25 4.75
      vertex 44 35.25 10
    endloop
  endfacet
  facet normal 0 1 -0
    outer loop
      vertex 54 50 0
      vertex 44 50 10
      vertex 54 50 10
    endloop
  endfacet
  facet normal 0 1 0
    outer loop
      vertex 44 50 10
      vertex 54 50 0
      vertex 44 50 0
    endloop
  endfacet
  facet normal 0 0 -1
    outer loop
      vertex 49.25 25.25 0
      vertex 54 0 0
      vertex 49.25 19.75 0
    endloop
  endfacet
  facet normal 0 0 -1
    outer loop
      vertex 44 0 0
      vertex 49.25 19.75 0
      vertex 54 0 0
    endloop
  endfacet
  facet normal -0 0 -1
    outer loop
      vertex 49.25 19.75 0
      vertex 44 0 0
      vertex 44 19.75 0
    endloop
  endfacet
  facet normal 0 0 -1
    outer loop
      vertex 54 0 0
      vertex 49.25 25.25 0
      vertex 54 50 0
    endloop
  endfacet
  facet normal 0 0 -1
    outer loop
      vertex 44 50 0
      vertex 49.25 25.25 0
      vertex 44 25.25 0
    endloop
  endfacet
  facet normal 0 0 -1
    outer loop
      vertex 49.25 25.25 0
      vertex 44 50 0
      vertex 54 50 0
    endloop
  endfacet
  facet normal 0 -1 0
    outer loop
      vertex 44 0 0
      vertex 54 0 10
      vertex 44 0 10
    endloop
  endfacet
  facet normal 0 -1 -0
    outer loop
      vertex 54 0 10
      vertex 44 0 0
      vertex 54 0 0
    endloop
  endfacet
  facet normal 0 -1 0
    outer loop
      vertex 44 35.25 4.75
      vertex 54 35.25 10
      vertex 44 35.25 10
    endloop
  endfacet
  facet normal 0 -1 -0
    outer loop
      vertex 54 35.25 10
      vertex 44 35.25 4.75
      vertex 54 35.25 4.75
    endloop
  endfacet
  facet normal 0 0 1
    outer loop
      vertex 54 35.25 4.75
      vertex 49.25 25.25 4.75
      vertex 54 14.75 4.75
    endloop
  endfacet
  facet normal -0 0 1
    outer loop
      vertex 44 35.25 4.75
      vertex 49.25 25.25 4.75
      vertex 54 35.25 4.75
    endloop
  endfacet
  facet normal 0 0 1
    outer loop
      vertex 49.25 25.25 4.75
      vertex 44 35.25 4.75
      vertex 44 25.25 4.75
    endloop
  endfacet
  facet normal -0 0 1
    outer loop
      vertex 49.25 19.75 4.75
      vertex 54 14.75 4.75
      vertex 49.25 25.25 4.75
    endloop
  endfacet
  facet normal 0 0 1
    outer loop
      vertex 44 14.75 4.75
      vertex 49.25 19.75 4.75
      vertex 44 19.75 4.75
    endloop
  endfacet
  facet normal 0 0 1
    outer loop
      vertex 49.25 19.75 4.75
      vertex 44 14.75 4.75
      vertex 54 14.75 4.75
    endloop
  endfacet
  facet normal 0 1 -0
    outer loop
      vertex 54 14.75 4.75
      vertex 44 14.75 10
      vertex 54 14.75 10
    endloop
  endfacet
  facet normal 0 1 0
    outer loop
      vertex 44 14.75 10
      vertex 54 14.75 4.75
      vertex 44 14.75 4.75
    endloop
  endfacet
  facet normal -1 0 0
    outer loop
      vertex 49.25 19.75 0
      vertex 49.25 25.25 4.75
      vertex 49.25 25.25 0
    endloop
  endfacet
  facet normal -1 -0 0
    outer loop
      vertex 49.25 25.25 4.75
      vertex 49.25 19.75 0
      vertex 49.25 19.75 4.75
    endloop
  endfacet
  facet normal 0 1 -0
    outer loop
      vertex 49.25 19.75 0
      vertex 44 19.75 4.75
      vertex 49.25 19.75 4.75
    endloop
  endfacet
  facet normal 0 1 0
    outer loop
      vertex 44 19.75 4.75
      vertex 49.25 19.75 0
      vertex 44 19.75 0
    endloop
  endfacet
  facet normal 0 -1 0
    outer loop
      vertex 44 25.25 0
      vertex 49.25 25.25 4.75
      vertex 44 25.25 4.75
    endloop
  endfacet
  facet normal 0 -1 -0
    outer loop
      vertex 49.25 25.25 4.75
      vertex 44 25.25 0
      vertex 49.25 25.25 0
    endloop
  endfacet
  facet normal -1 0 0
    outer loop
      vertex 55 50 0
      vertex 55 35.25 4.75
      vertex 55 50 10
    endloop
  endfacet
  facet normal -1 0 0
    outer loop
      vertex 55 50 0
      vertex 55 14.75 4.75
      vertex 55 35.25 4.75
    endloop
  endfacet
  facet normal -1 0 0
    outer loop
      vertex 55 0 0
      vertex 55 14.75 4.75
      vertex 55 50 0
    endloop
  endfacet
  facet normal -1 0 0
    outer loop
      vertex 55 0 10
      vertex 55 14.75 4.75
      vertex 55 0 0
    endloop
  endfacet
  facet normal -1 0 0
    outer loop
      vertex 55 14.75 4.75
      vertex 55 0 10
      vertex 55 14.75 10
    endloop
  endfacet
  facet normal -1 -0 0
    outer loop
      vertex 55 50 10
      vertex 55 35.25 4.75
      vertex 55 35.25 10
    endloop
  endfacet
  facet normal -0 0 1
    outer loop
      vertex 55 14.75 10
      vertex 65 0 10
      vertex 65 14.75 10
    endloop
  endfacet
  facet normal 0 0 1
    outer loop
      vertex 65 0 10
      vertex 55 14.75 10
      vertex 55 0 10
    endloop
  endfacet
  facet normal -0 0 1
    outer loop
      vertex 55 50 10
      vertex 65 35.25 10
      vertex 65 50 10
    endloop
  endfacet
  facet normal 0 0 1
    outer loop
      vertex 65 35.25 10
      vertex 55 50 10
      vertex 55 35.25 10
    endloop
  endfacet
  facet normal 1 0 0
    outer loop
      vertex 65 14.75 10
      vertex 65 0 10
      vertex 65 14.75 4.75
    endloop
  endfacet
  facet normal 1 -0 0
    outer loop
      vertex 65 14.75 4.75
      vertex 65 19.75 0
      vertex 65 19.75 4.75
    endloop
  endfacet
  facet normal 1 0 0
    outer loop
      vertex 65 0 0
      vertex 65 14.75 4.75
      vertex 65 0 10
    endloop
  endfacet
  facet normal 1 0 0
    outer loop
      vertex 65 14.75 4.75
      vertex 65 0 0
      vertex 65 19.75 0
    endloop
  endfacet
  facet normal 1 0 0
    outer loop
      vertex 65 35.25 4.75
      vertex 65 50 10
      vertex 65 35.25 10
    endloop
  endfacet
  facet normal 1 0 0
    outer loop
      vertex 65 50 10
      vertex 65 35.25 4.75
      vertex 65 50 0
    endloop
  endfacet
  facet normal 1 0 0
    outer loop
      vertex 65 25.25 0
      vertex 65 35.25 4.75
      vertex 65 25.25 4.75
    endloop
  endfacet
  facet normal 1 0 0
    outer loop
      vertex 65 35.25 4.75
      vertex 65 25.25 0
      vertex 65 50 0
    endloop
  endfacet
  facet normal 0 1 -0
    outer loop
      vertex 65 50 0
      vertex 55 50 10
      vertex 65 50 10
    endloop
  endfacet
  facet normal 0 1 0
    outer loop
      vertex 55 50 10
      vertex 65 50 0
      vertex 55 50 0
    endloop
  endfacet
  facet normal 0 0 -1
    outer loop
      vertex 65 0 0
      vertex 59.75 19.75 0
      vertex 65 19.75 0
    endloop
  endfacet
  facet normal -0 0 -1
    outer loop
      vertex 59.75 19.75 0
      vertex 55 0 0
      vertex 59.75 25.25 0
    endloop
  endfacet
  facet normal 0 0 -1
    outer loop
      vertex 55 0 0
      vertex 59.75 19.75 0
      vertex 65 0 0
    endloop
  endfacet
  facet normal 0 0 -1
    outer loop
      vertex 59.75 25.25 0
      vertex 65 50 0
      vertex 65 25.25 0
    endloop
  endfacet
  facet normal 0 0 -1
    outer loop
      vertex 59.75 25.25 0
      vertex 55 50 0
      vertex 65 50 0
    endloop
  endfacet
  facet normal 0 0 -1
    outer loop
      vertex 55 50 0
      vertex 59.75 25.25 0
      vertex 55 0 0
    endloop
  endfacet
  facet normal 0 -1 0
    outer loop
      vertex 55 0 0
      vertex 65 0 10
      vertex 55 0 10
    endloop
  endfacet
  facet normal 0 -1 -0
    outer loop
      vertex 65 0 10
      vertex 55 0 0
      vertex 65 0 0
    endloop
  endfacet
  facet normal 0 -1 0
    outer loop
      vertex 55 35.25 4.75
      vertex 65 35.25 10
      vertex 55 35.25 10
    endloop
  endfacet
  facet normal 0 -1 -0
    outer loop
      vertex 65 35.25 10
      vertex 55 35.25 4.75
      vertex 65 35.25 4.75
    endloop
  endfacet
  facet normal 0 0 1
    outer loop
      vertex 65 35.25 4.75
      vertex 59.75 25.25 4.75
      vertex 65 25.25 4.75
    endloop
  endfacet
  facet normal 0 0 1
    outer loop
      vertex 55 14.75 4.75
      vertex 59.75 25.25 4.75
      vertex 55 35.25 4.75
    endloop
  endfacet
  facet normal -0 0 1
    outer loop
      vertex 55 35.25 4.75
      vertex 59.75 25.25 4.75
      vertex 65 35.25 4.75
    endloop
  endfacet
  facet normal -0 0 1
    outer loop
      vertex 59.75 19.75 4.75
      vertex 65 14.75 4.75
      vertex 65 19.75 4.75
    endloop
  endfacet
  facet normal 0 0 1
    outer loop
      vertex 59.75 19.75 4.75
      vertex 55 14.75 4.75
      vertex 65 14.75 4.75
    endloop
  endfacet
  facet normal 0 0 1
    outer loop
      vertex 59.75 25.25 4.75
      vertex 55 14.75 4.75
      vertex 59.75 19.75 4.75
    endloop
  endfacet
  facet normal 0 1 -0
    outer loop
      vertex 65 14.75 4.75
      vertex 55 14.75 10
      vertex 65 14.75 10
    endloop
  endfacet
  facet normal 0 1 0
    outer loop
      vertex 55 14.75 10
      vertex 65 14.75 4.75
      vertex 55 14.75 4.75
    endloop
  endfacet
  facet normal 1 -0 0
    outer loop
      vertex 59.75 19.75 4.75
      vertex 59.75 25.25 0
      vertex 59.75 25.25 4.75
    endloop
  endfacet
  facet normal 1 0 0
    outer loop
      vertex 59.75 25.25 0
      vertex 59.75 19.75 4.75
      vertex 59.75 19.75 0
    endloop
  endfacet
  facet normal 0 1 -0
    outer loop
      vertex 65 19.75 0
      vertex 59.75 19.75 4.75
      vertex 65 19.75 4.75
    endloop
  endfacet
  facet normal 0 1 0
    outer loop
      vertex 59.75 19.75 4.75
      vertex 65 19.75 0
      vertex 59.75 19.75 0
    endloop
  endfacet
  facet normal 0 -1 0
    outer loop
      vertex 59.75 25.25 0
      vertex 65 25.25 4.75
      vertex 59.75 25.25 4.75
    endloop
  endfacet
  facet normal 0 -1 -0
    outer loop
      vertex 65 25.25 4.75
      vertex 59.75 25.25 0
      vertex 65 25.25 0
    endloop
  endfacet
endsolid OpenSCAD_Model
